/* XPM */
static char *result[] = {
/* columns rows colors chars-per-pixel */
"64 64 218 2 ",
"   c #020300",
".  c #0F0300",
"X  c #020903",
"o  c #170303",
"O  c #160B00",
"+  c #1B0C01",
"@  c #001C00",
"#  c #1C1308",
"$  c #131215",
"%  c #270C07",
"&  c #260409",
"*  c #211203",
"=  c #26150B",
"-  c #331706",
";  c #2A151A",
":  c #261818",
">  c #032100",
",  c #092701",
"<  c #052B00",
"1  c #0B2C04",
"2  c #17270A",
"3  c #0E3106",
"4  c #17310E",
"5  c #18310E",
"6  c #172710",
"7  c #162810",
"8  c #1C2E12",
"9  c #1C3213",
"0  c #1F3919",
"q  c #232606",
"w  c #292F11",
"e  c #352A17",
"r  c #223416",
"t  c #283517",
"y  c #323213",
"u  c #1F1C21",
"i  c #211C22",
"p  c #2E2F2E",
"a  c #363A27",
"s  c #3B3A25",
"d  c #480E11",
"f  c #4A171B",
"g  c #5F1817",
"h  c #4D2B01",
"j  c #522D02",
"k  c #502F08",
"l  c #553609",
"z  c #593912",
"x  c #6D3F02",
"c  c #633A09",
"v  c #6A3F0B",
"b  c #67211B",
"n  c #7F1E20",
"m  c #493126",
"M  c #522D33",
"N  c #6B282C",
"B  c #0B4C00",
"V  c #1D540C",
"C  c #245513",
"Z  c #295616",
"A  c #275915",
"S  c #176B01",
"D  c #1E7106",
"F  c #33422B",
"G  c #375A24",
"H  c #6E4003",
"J  c #6B400C",
"K  c #754607",
"L  c #6B4415",
"P  c #7D5016",
"I  c #6F502B",
"U  c #6D5233",
"Y  c #4E7D33",
"T  c #567C35",
"R  c #413F41",
"E  c #50514F",
"W  c #744C47",
"Q  c #5F605E",
"!  c #78624A",
"~  c #756359",
"^  c #676767",
"/  c #796466",
"(  c #716F72",
")  c #777778",
"_  c #8F3C0C",
"`  c #903B0D",
"'  c #821E21",
"]  c #8D2224",
"[  c #88292B",
"{  c #952E2E",
"}  c #AB2727",
"|  c #A52929",
" . c #AB2B2B",
".. c #B02C2C",
"X. c #AE3434",
"o. c #AB3638",
"O. c #B23939",
"+. c #875310",
"@. c #8B5918",
"#. c #BF510F",
"$. c #BF5212",
"%. c #BB581D",
"&. c #94611E",
"*. c #864A28",
"=. c #B55F2D",
"-. c #8F662F",
";. c #946C38",
":. c #B36435",
">. c #C0500E",
",. c #C25412",
"<. c #93484D",
"1. c #8E5257",
"2. c #8E5358",
"3. c #97565A",
"4. c #A44344",
"5. c #B24243",
"6. c #B34749",
"7. c #B5494A",
"8. c #AD4F51",
"9. c #A75052",
"0. c #A95355",
"q. c #B85355",
"w. c #B75558",
"e. c #BA5759",
"r. c #926B57",
"t. c #A77557",
"y. c #865B60",
"u. c #9D5B60",
"i. c #A25F64",
"p. c #916D68",
"a. c #977A7B",
"s. c #997D7E",
"d. c #BB6366",
"f. c #BE6669",
"g. c #AF6E71",
"h. c #B36E71",
"j. c #B86D72",
"k. c #A3797B",
"l. c #B47577",
"z. c #C1676B",
"x. c #C16F73",
"c. c #C47174",
"v. c #178A00",
"b. c #1A8B00",
"n. c #1D9601",
"m. c #2C8E0F",
"M. c #249B05",
"N. c #2B900F",
"B. c #2E9111",
"V. c #319514",
"C. c #329B13",
"Z. c #21AF00",
"A. c #24B900",
"S. c #2BBB05",
"D. c #34B30F",
"F. c #36BE0F",
"G. c #39A317",
"H. c #36B611",
"J. c #37BF10",
"K. c #39BF11",
"L. c #59823A",
"P. c #559D33",
"I. c #589E36",
"U. c #49BC21",
"Y. c #5AA736",
"T. c #5AAA34",
"R. c #5BB134",
"E. c #61AE3B",
"W. c #2EC107",
"Q. c #36C00F",
"!. c #38C211",
"~. c #3DC115",
"^. c #40C317",
"/. c #41C218",
"(. c #47C51D",
"). c #4CC523",
"_. c #4CC822",
"`. c #51C726",
"'. c #51CA26",
"]. c #53C728",
"[. c #54CA29",
"{. c #5EC033",
"}. c #5ECB32",
"|. c #61CC35",
" X c #66CD39",
".X c #68CE3B",
"XX c #67D139",
"oX c #68D23A",
"OX c #66A242",
"+X c #6AA445",
"@X c #6CAB45",
"#X c #6EB346",
"$X c #73B34B",
"%X c #74B94B",
"&X c #73C946",
"*X c #73D144",
"=X c #77D846",
"-X c #78DB47",
";X c #77D248",
":X c #7AD34A",
">X c #7DD94C",
",X c #8F887A",
"<X c #9C8576",
"1X c #9F8778",
"2X c #A28579",
"3X c #87CE57",
"4X c #86D754",
"5X c #88D756",
"6X c #88D856",
"7X c #89D957",
"8X c #8DD95A",
"9X c #90DB5D",
"0X c #90E25B",
"qX c #987E80",
"wX c #8D8D8D",
"eX c #968283",
"rX c #9C898B",
"tX c #918F92",
/* pixels */
"A./.*X*X/.K.&X8X8X7X8X*X~.A.A.A.A./.*X8X8X8X8X8X8X8X8X*X~./.=X=X^.^.*X*X~.~.&X8X7X8X8X*X~.A.A.S.A./.&X8X8X8X8X8X7X8X8X*X~.~.*X8X",
"A.~.*X*X/.~.*X8X8X8X8X;X`.J.F.A.A.~.*X5X:X*X*X;X4X7X5X*X~.K.T.P.m.G.&X=X~.~.*X8X8X8X8X;X].J.S.A.A./.*X4X:X;X&X:X4X8X8X&X~.Q.}.;X",
"A.^.*X*X/.~.*X8X8X5X7X4X:X|.F.A.A.~.*X:X].K.).[.;X8X8X*X~.M.C 7 , A #X-X~.~.*X8X8X7X8X4X;X|.J.A.A./.*X;X]./.K.].;X8X8X*X~.S.Q.~.",
"~.[.:X&X~.J.}.;X4X8X8X8X8X&X/.A.K.[.:X*XK.A.Z.~.*X8X8X&XG.D 0 i i a L.T.H.Q.}.:X4X8X7X8X8X*X/.S.J.[.:X*XK.A.A./.*X8X8X;X]./.~.~.",
"*X;X4X*X~.A.F.`.:X8X8X7X8X*X~.F.}.:X7X*X~.A.A.~.*X8X8X#XC 0 E ) ( Q a V M.W.Q._.;X8X8X8X8X*XK.F.|.:X7X*X~.A.A.K.&X8X7X4X:X*X*X*X",
"8X8X8X:X[.~.K.). X:X4X8X8X-X]._.XX>X7X:X[.!.S./.*X0X0X+X8 $ Q wXtX( i , B.(.~.).XX-X4X8X8X:X[._..X>X7X:X[.Q.S./.*X8X8X4X:X&X*X*X",
"8X8X8X4X;X*X*X X(._.:X0X8X7X>XXX_.'.>X8X>X|.!./.*X0X0X+X8 $ R ^ tX( u 2 P.-X-XoX_.].-X8X0X7X>X.X_.].-X7X>X|.F.K.*X9X8X;X].~.~.~.",
"8X4X&X*X*X*X;X.X_.U.T.+X+X+X+XP.N.N.P.+X+XP.B.B.Y.OX+XL.F p E ^ ) ^ p r L.+X+XY.B.N.P.+XOX+X+XP.m.N.P.+X+XE.U._. X:X7X;X).~.~.~.",
"7X;X`.~.~.^.~.].oXE.G 8 9 9 r 8 1 1 5 0 9 9 1 3 9 9 r p ^ ) qX+X^ E R p t 0 0 8 1 1 9 9 9 9 r 5 1 1 5 8 9 G E.oX_.).;X5X:X*X*X*X",
"8X;X`.~.~.~.~.U.E.T y + * * + * * + * * * * * * * + % e Q ) ( Q E p a p = * * * + * * * * * * * * * * * + y L.E.U._.;X8X8X8X8X8X",
"8X4X*X*X*X*X*XT.G y l H J J J v J J J J v v v J v v v z i i u u $ $ $ i l J J J J v v v v v v v v v J J J l e Z Y.:X4X7X8X8X8X5X",
"5X5X8X4X:X:X7X@XC 2 l J J J J J J J J J v v J J v J v k $ X # q # +   # k J J J J J v v v v v J J J J J J z e G $X7X>X*X&X;X4X7X",
"8X8X8X;X).`.:X&XC.D q * + * * * * * + * * * * * = * * + X # m I L j + X O * # * * * * * * * + * * * * * * y T $X3X;X].K.~.].;X9X",
"5X8X8X;X`.)..X|.^.M.V 8 r 7 X X > 1 9 9 3 > X   > < 1 > X = U ;.&.J * X 7 9 1 > X X 7 r r r 0 6 X X 7 9 , C T.-X;X|.K.A.A.!.}.*X",
"5X5X5X4X:X.X(.Q.W.H.Y.+X@XY 6 @ S C.Y.Y.C.S @ @ S n.n.S > : I ;.&.J + 7 L.T.C.S @ 6 Y @X@X@X@XY # 6 Y Y.V.M.H././.K.F.A.A.S.J.~.",
"8X8X8X5X:X.X_.J.S.^.=X5X%XL.s t D N.Y.Y.C.D t t D n.n.S > = U ;.&.c + 7 Y T.C.S t s L.@X@X@X@XL.a s L.R.K.W.!.J.S.A.A.S.K./.~./.",
"8X9X8X:X]._..X|.J.^.-X%XG s W W t < 4 4 1 t W W t < < > X # U ;.&.x + X 6 9 1 t W W m 5 r 5 r F W W F C M.~.|.|.Q.A.A.K.|.&X*X*X",
"oX&X&X|.F.F.|.|.~.H.T.L.y M i.i.M ; ; ; ; M i.i.M ; ; ; i m ! r.;.I m ; ; ; ; M i.i.M ; : ; ; M i.i.M w D G.&X>X].~.K.].:X8X;X*X",
"^./.^.J.S.A.J.K.S.M.V s W i.j.j.u.2.2.2.2.3.h.h.u.2.2.2.3.p.a.,X,Xp.p.1.2.1.1.u.h.h.3.1.2.2.2.3.h.j.3.W r C @X7X:X*X*X>X5X;X[.~.",
"^.K.K./././.^.^./.m., ; 3.c.f.d.x.x.f.f.c.x.d.d.x.x.f.f.l.l.2X<X<X1Xl.l.f.f.x.x.d.d.x.x.z.z.c.j.d.z.c.2.; 8 +X0X9X4X:X;X4X;X`.K.",
"oX&X*X*X&X;X*X*X*XY.2 ; 3.z.6.6.f.f.7.7.z.f.6.6.f.f.7.8.k.k.t.:.:.t.2Xk.8.7.z.d.7.6.f.f.6.6.f.f.6.7.z.3.; u OX9X9X;X`.`.;X4X;X&X",
"9X8X8X5X:X:X5X7X>XP.4 ; <.e.5.5.w.w.5.5.q.w.5.5.e.8.X.4.a.<X=.#.#.:.<Xa.4.X.q.w.=.5.w.w.5.5.w.w.5.=.e.<.; 9 P.-X*X}.F.~.*X8X8X8X",
"9X9X7X;X`.'.:X4X[.N.3 & n 6.e.w.5.5.w.w.5.5.w.w.5.X. .4.a.<X:.#.>.:.<Xa.4.} X.5.w.w.5.5.w.w.5.5.q.w.5.[ & 3 B.~./.Q.A.~.*X8X8X8X",
"&X;X4X*X~.Q.}.XX'.N.1 ; N 0.h.g.9.9.g.g.9.9.g.g.9.4.4.0.,X<X:.$.,.:.<Xa.3.4.4.9.g.g.9.9.g.g.9.9.h.h.0.N & 1 v.W.!.~.~.[.:X4X:X*X",
"!.].:X;X^.S.F.(.oXP.2 ; ~ eXrXrX<XqXrXrXa.qXrXrXa.a.a.eXtX<X:.$.$.:.<XtXeXa.a.qXrXrXa.qXrXrXa.qXrXrXqX~ : < b.~.|.*X&X;X4X;X[.~.",
"~.(..X|.K.S.F.].4XE.0 : ~ 2X1X<X<X<X<X<X<X<X<X<X<X<X<X<X,Xt.=.#.$.=.t.<X<X<X<X<X<Xa.<X<X<X<X<X<X1X2X2X~ i < b.!.|.>X8X8X;X|.J.A.",
";X.X`.J.A.!.}.:X5X+X9 = *.:.:.:.:.:.:.:.:.:.:.:.:.:.:.:.:.=.=.$.$.%.=.:.:.:.:.:.:.:.:.:.:.:.:.:.:.:.:.*.= 1 b.W.!.].>X:X].J.S.A.",
";X|.K.A.J.].:X9X9X+X9 % _ ,.,.$.$.#.#.#.$.#.$.$.$.$.$.$.#.#.$.$.$.%.$.$.$.$.$.$.$.$.#.$.#.#.$.$.,.,.,.` % < b.W.!.)..X|.K.S.K.K.",
"/.K.S.K.|.:X4X9X8XOX9 % ` ,.,.,.#.$.#.$.$.#.$.$.$.$.$.$.$.$.$.%.$.#.$.$.$.$.$.$.$.$.#.$.$.$.#.#.,.,.,.` % < b.!.|. X).F.S.K.|.;X",
"A.A.A.~.;X8X8X7X0XOXr = *.:.:.:.:.:.:.:.:.:.:.:.:.:.:.:.:.=.%.$.$.=.=.:.:.:.:.:.:.:.:.:.:.:.:.:.:.:.:.*.= 1 B._..X X).J.S./.;X8X",
"A.A.A./.&X9X8X9X8XOX8 : ~ 2X2X<X<X<X<X<X<Xa.<X<X<X<X<X<X<Xt.:.$.$.=.t.,X<X<X<X<X<X<X<X<X<X<X<X<X1X1X2X~ : 4 P.XX_.). X|.J./.&X8X",
"S.S.K.`. X:X4X7X0XE.8 i / rXeXs.a.a.qXqXrXrXqXa.a.a.a.eXtX<X:.$.$.:.<XtXeXa.a.a.a.qXrXrXqXa.s.s.s.eXrX/ i r +X>X].`.:X*X/.~.*X9X",
"A.K.|. X).).;X8X8XOX9 ; y.j.0.4.4.4.4.0.l.g.9.4.4.4.4.3.rX<X:.,.#.:.<XeX3.4.4.4.4.0.g.h.9.4.4.4.4.0.l.2.; r +X8X:X=X4X*X~.^.*X8X",
"A./.*X;X~.~.*X9X8XOX8 ; <.e.O.}  .} } o.q.q.o.|  .}  .4.a.2X:.,.,.:.2Xs.4.} }  .} o.w.q.o.} } | } O.w.<.; 7 P.;X5X8X8X*X~.!.}.*X",
"A./.*X*X~.~.*X9X0XOX8 & [ O... . . .}  .o.o.X.|  .}  .4.qX1X:.,.,.:.2XeX4.} ..}  .X.o.o...|  .} | ..O.[ & , B.].:X9X8X&XK.S.F.~.",
"K.].:X*X~.J.}.;X4X$XG e b ] o.O.X. . . . . . . . . .| o./ ~ *._ ` *.~ / o. . . . . . . . . . .X.O.o.[ g q B n.K.*X8X8X;X]./.K.^.",
"&X:X7X*X/.S.J.].:X3X$XT w f <.e.O.|  . . . . . . . ...{ m u = * % = : m [  . . . . . . . . . .O.e.<.f 2 S M.Z.^.&X8X8X4X:X;X*X*X",
"8X8X8X;X].K.K.). X-X0X$XG a W <.o.}  . . . . . . .| ] g o   # # # O   o g ] | .. . . . . . . .o.<.W s A G.!.S.^.*X8X8X4X:X&X*X*X",
"8X8X8X8X:X*X*X X).).:X4X$XL.s f [  ..... . . . . .] d o X # m I L k O   o d ] X. . . . .......[ f F L.#X&X|.Q.^.*X9X8X;X].K.^.^.",
"8X4X*X*X*X*X*X|.).(. X:X0X#XC q g n ] n n ] | | ] b e 2 X = I -.@.J * X > 2 b ] | | ] n ' ' ' b e G E.>X7X:X'.(.|.:X5X;X]./.K.K.",
"8X&X_.~.~.~.~._.|.|.).].>X&XG.S q & & & & d ] ] d e L.L.1 # L @.P j + , S S 2 d ] ] d % & & & e T R.U.'.:X4X4X X(.`.;X4X;X&XoX*X",
"7X;X].~.~.~.K.].4X*X/.F.|.|.!.M.V 4 1 < 4 e b b e G %X@Xr + L @.K j + 3 V.G.A e b b q 1 < < > A #X=X^.~.*X4X;X X(.`.=X9X9X8X9X8X",
"8X4X;X&X*X*X&X:X5X;X^.S.F.J.S.H.T.Y.m.C.Y.T e e T $X5X@Xr = I -.@.l + 9 Y.;X#XT e q D b.n.b.b.G.&X;X~.~.oX:X`.(.|.;X4X8X8X8X8X8X",
"7X8X7X4X=X:X5X5X:X|.J.S.J.K./.[.>X*X~.^.=X$XG G #X0X>XP.9 # U ;.@.c + 4 P.>X0X#XZ B M.W.!.^.~.[.:X*X~.~.&X4X].`.:X8X;X&X&X;X4X8X",
"8X8X8X;X).`.;X:X].J.A.J.}.&X*X:X7X*X^.~.;X3X$X$X4X>X[.B., : U -.+.k O 1 B.[.>X&XC.n.Z.!.|.*X*X:X7X*X~.~.&X5X:X:X5X:X].~.~.`.;X9X",
"5X8X8X*X`.)..X|.~.A.J.].=X9X9X5X:X X(.`. X*X=X*X*X|.!.b.< # I -.K h O 1 B._.oX}.~.S.!.].:X9X8X5X:X X`.(. X;X*X*X*X|.J.Z.A.!.|.*X",
"8X5X8X4X;X X_.F.A.~.|.;X5X8X7X;X].). X.X`./.^.^./.~.W.b.< # L +.K h O 9 P.oX_.J.S.~.|.;X4X8X9X=X`._. X.X`.K./././.K.F.A.A.S.F.K.",
"8X8X8X5X:X.X_.H.S.^.&X9X9X8X9X&XK.J.|.|.J.A.J.J.S.A.A.b.< % x +.K h O 9 I.oX[.J.S./.*X9X8X8X8X&XK.J.|.|.K.A.J.J.S.A.A.S.K./././.",
"8X5X8X:X`.). X|.K./.&X9X9X8X8X&X/.A.K.K.S.K.|.|.K.A.A.b.< * J +.K h O 1 V.'.oX|.J.^.*X9X9X8X9X&X/.A.K.K.S.J.|.|.J.A.A.H.|.*X*X*X",
"&X*X*X}.F.K.|.|.K.J.|.&X*X*X*XXX`.K.S.S.K.].:X:X]././.B.1 + c P H j O < b.!.|.|.J.J.|.&XoX&X*X X`.J.S.S.J.].>X:X].K./.].:X5X;X*X",
"~.~.~.Q.S.S.J.J.S.S.K.~.K./.^._..X|.J.J.}.:X5X4X:X*X=XI.5 + j H x j O < b.W.!.~.S.S.J.K./.^./.)..X|.J.J.}.:X4X4X;X&X*X>X8X;X].~.",
"~.~.~.~././.^.~./.~.~.~./.J.S.J.|..X).].:X9X8X8X9X5X:XI.9 + j H x h + 1 B./.^.!././././.^.J.S.K.|. X`.`.:X9X8X8X9X5X;X:X4X;X`.J.",
"*X&X&X*X*X*X*X*X*X*X*X&X&X|.!.S.K.`..X:X6X9X5X9X9X>X[.B.3 + c +.K h o 5 Y.*X*X*X;X&X*X*X;X|.J.S.K.`..X:X8X9X8X8X9X;X].].;X4X*X&X",
"8X8X8X4X:X:X5X5X:X:X6X5X:X|.K.A.A.K.|.;X*X&X*X&X*X}.!.b.< + v K K h O 5 P.4X7X6X;X:X4X4X:X|.K.A.A.K.|.*X*X&X*X&X*X}.F.K.*X8X8X8X",
"8X8X9X=X].].:X>X].`.:X:X].J.S.A.A.S.K./.^.^././.~.!.S.b.1 + j K x j O 1 N.[.4X:X].`.:X:X].J.S.S.A.D.~./.^.^././.~.J.A.~.*X8X9X8X",
"*X=X4X&X~.F.}.|.(.`.:X:X].J.S.S.S.A.A.A.A.A.S.S.!./.(.N.3 O j H x j O < b.!.}. X(.].:X:X].J.S.A.A.A.A.A.A.A.A.S.J.~.~.[.;X4X:X*X",
"K.].:X;X/.S.J.(.|.:X4X4X:X|.J.A.A.S.A.A.A.A.A.K.|.=X=XP.5 + h x x j O 1 b.S.!.(.|.:X5X5X:X|.J.A.S.A.A.A.A.A.A.J.|.&X&X;X5X;X[.~.",
"~.)..X|.K.A.J.`.:X5X;X;X4X:X].K.S.S.K././.K.S.K.|.>X8X+Xr . - h j - . < b.W.!.`.:X5X;X;X5X:X].K.S.S.K././.K.S.J.|.>X5X8X:X|.F.A.",
";X XU.J.S.J.|.;X5X;X`.`.;X5X4X}.J.J.|.;X;X|.K.S.F.].>X+Xr   . O + o   > b.!.|.;X5X;X`._.;X5X:X|.J.K.|.*X;X|.J.S.J.].4X:X].J.S.A.",
";X|.K.S.K.`.;X9X8X;X`._.;X5X:X|.(.`.;X9X9X&X/.A.J._..XY.C 1 8 9 1 , , V C.].:X9X8X;X_.`.;X4X:X X(.`.:X9X9X&X/.S.F._.|.|.K.S.K.K.",
"/.K.S.K.|.=X4X9X5X4X;X;X4X:X`.(. X:X4X8X9X;XK.J.|..X).D.M.B.P.P.B.v.b.G.{.:X4X8X8X4X&X;X4X;X`.(. X:X5X9X9X&X~.J.|..X).F.S.K.|.;X",
"A.A.A./.&X9X8X5X8X5X8X8X5X;X`.`.;X8X8X4X;X|.).`. X X`.J.W./.:X=X/.W.A.^.*X9X8X5X5X8X8X8X8X;X`.`.;X8X8X4X;X X_.). X.X).F.S./.&X9X",
"S.A.A./.*X8X8X5X5X5X8X8X5X5X;X;X5X8X8X;X`.(..X X)._. X|.!./.=X*X/.W.A./.*X8X8X5X8X5X8X8X5X4X;X;X4X9X8X;X]._..X.X).). X|.J./.*X8X",
"A.S.A./.&X8X8X8X5X8X8X5X5X8X8X5X7X8X7X&XK./.*X;XK.^.*X&X/.~.*X*X~.A.A.^.*X8X7X8X5X8X5X5X5X8X8X8X5X5X5X&XK.K.;X;XK.K.;X*X/.~.*X8X"
};
