/* XPM */
static char *result[] = {
/* columns rows colors chars-per-pixel */
"64 64 152 2 ",
"   c #25B900",
".  c #41C218",
"X  c #74D145",
"o  c #73D144",
"O  c #3FC117",
"+  c #3DC116",
"@  c #71D042",
"#  c #8CD95A",
"$  c #8BD859",
"%  c #72D143",
"&  c #3DC115",
"*  c #23B900",
"=  c #26B901",
"-  c #27BA02",
";  c #40C117",
":  c #8DD95B",
">  c #8ED95B",
",  c #76D246",
"<  c #90DA5D",
"1  c #24B900",
"2  c #3EC116",
"3  c #78D349",
"4  c #52C727",
"5  c #38BF11",
"6  c #2DBB07",
"7  c #87D755",
"8  c #7AD34A",
"9  c #84D653",
"0  c #8DD95A",
"q  c #3DC015",
"w  c #37BF10",
"e  c #60CB33",
"r  c #5ECB32",
"t  c #23B800",
"y  c #8ED95C",
"u  c #8AD858",
"i  c #8BD858",
"p  c #85D754",
"a  c #79D349",
"s  c #5FCB33",
"d  c #39BF12",
"f  c #7BD34B",
"g  c #54C729",
"h  c #52C728",
"j  c #71D043",
"k  c #2ABB04",
"l  c #53C728",
"z  c #36BE0F",
"x  c #5DCA31",
"c  c #86D755",
"v  c #8CD959",
"b  c #29BA04",
"n  c #55C82A",
"m  c #21B800",
"M  c #22B800",
"N  c #79D34A",
"B  c #28BA03",
"V  c #34BE0E",
"C  c #51C727",
"Z  c #3CC015",
"A  c #7DD44D",
"S  c #88D857",
"D  c #85D654",
"F  c #4AC521",
"G  c #64CC37",
"H  c #86D754",
"J  c #78D248",
"K  c #4BC521",
"L  c #65CD38",
"P  c #7BD44B",
"I  c #88D756",
"U  c #75D145",
"Y  c #48C41F",
"T  c #4FC625",
"R  c #66CD39",
"E  c #4AC420",
"W  c #51C626",
"Q  c #89D857",
"!  c #7CD44B",
"~  c #5ECA32",
"^  c #35BE0F",
"/  c #72D144",
"(  c #8FDA5D",
")  c #51C726",
"_  c #3CC014",
"`  c #77D248",
"'  c #49C420",
"]  c #49C41F",
"[  c #87D756",
"{  c #7CD44C",
"}  c #78D348",
"|  c #50C626",
" . c #3AC013",
".. c #4CC522",
"X. c #53C729",
"o. c #7DD44C",
"O. c #66CD38",
"+. c #70D041",
"@. c #70D042",
"#. c #75D246",
"$. c #37BE10",
"%. c #5FCB32",
"&. c #65CD37",
"*. c #2ABB05",
"=. c #63CC36",
"-. c #77D247",
";. c #54C829",
":. c #36BE10",
">. c #8FD95C",
",. c #50C625",
"<. c #4AC421",
"1. c #4BC522",
"2. c #68CE3A",
"3. c #69CE3B",
"4. c #4DC523",
"5. c #40C118",
"6. c #3ABF12",
"7. c #2BBB05",
"8. c #67CD3A",
"9. c #3BC014",
"0. c #62CC35",
"q. c #61CB34",
"w. c #39BF11",
"e. c #60CB34",
"r. c #35BE0E",
"t. c #61CC35",
"y. c #4EC624",
"u. c #2CBB06",
"i. c #6ACE3C",
"p. c #62CC36",
"a. c #8FDA5C",
"s. c #3BC013",
"d. c #68CE3B",
"f. c #76D247",
"g. c #38BF10",
"h. c #2CBB07",
"j. c #2DBC07",
"k. c #41C219",
"l. c #3EC117",
"z. c #26BA02",
"x. c #25B901",
"c. c #7AD34B",
"v. c #2BBB06",
"b. c #2ABA04",
"n. c #91DA5E",
"m. c #42C219",
"M. c #84D652",
"N. c #75D146",
"B. c #85D653",
"V. c #4FC624",
"C. c #67CD39",
"Z. c white",
/* pixels */
"  . X o O + @ # $ $ # % & * = - = ; % : > : : # $ $ # @ & ; , , ; O o o O + @ # $ $ # % & * = - = ; % : > : : # $ $ # @ & O X < ",
"1 O o o O 2 % : # $ # 3 4 5 6 = 1 O o 7 8 % % 3 9 # 0 @ q w e e w 2 o o O 2 % : # $ # 3 4 5 6 = 1 O o 7 8 % % 3 9 # 0 @ q w r X ",
"t O o o O 2 o y # u i p a s d 1 t O o f g 2 2 h 3 : : j + k 5 5 k O X o O 2 o y # u i p a s d 1 t O o f g 2 2 h 3 : : j + k w O ",
"+ l 8 o 2 z x a c v $ # y o O b w n f o 2 m M 2 % : : 3 l O 2 2 2 l 8 o 2 z x a c v $ # y o O b w n f o 2 m M 2 % : : 3 l O 2 O ",
"% N c % 2 B V C 8 > v # : % Z z e A S % q m M O % 0 # D 8 X o o % 8 7 % 2 B V C 8 > v # : % Z z e A S % q m M O % 0 # D 8 X o o ",
"# : : 8 l 2 q F G a H 0 # J C K L P I 8 l z b 2 o > # 9 a % % a c > > 8 l 2 q F G a H 0 # J C K L P I 8 l z b 2 o > # 9 a o o o ",
"$ # 0 7 8 U X L Y T a > # H f R E W N Q ! ~ ^ q / ( > J ) _ _ C a > > 7 8 U X L Y T a > # H f R E W N Q ! ~ ^ q / ( > J ) q 2 O ",
"$ 9 ` @ % X X L ' ] G 8 7 [ { R ' Y G f Q 8 l F G a c } |  . .| } H } @ % X X L ' ] G 8 7 [ { R ' Y G f Q 8 l F G a c } | _ Z + ",
"# J W _ & 2 2 ..R L F h f f X...L L F C a Q o.O.] T ` H } +.+.} H } | _ & 2 2 ..R L F h f f X...L L F C a Q o.O.] T ` H } @.@ @ ",
"# J W _ + & _ h A #.2 $.s %.^ q X X 2 _ @ I P &.Y T J > y : 0 0 # ` | _ + & _ h A #.2 $.s %.^ q X X 2 _ @ I P &.Y T J > y : 0 # ",
"$ 9 ` @ % % @ N Q #.O *.w z B 2 U X 2 & % N C ] =.a c : > : # $ $ 9 -.@ % % @ N Q #.O *.w z B 2 U X 2 & % N C ] =.a c : > : # $ ",
"u $ # H a N I Q f s 5 *.$.& 2 X.! o 2 2 o 8 C | 8 Q 8 j j 3 p v $ $ # H a N I Q f s 5 *.$.& 2 X.! o 2 2 o 8 C | 8 Q 8 j j a H # ",
"u $ 0 J T C P A ;.:.b w r o o 8 S o Z Z o I 8 8 Q ! l q q h 8 > v $ 0 J T C P A ;.:.b w r o o 8 S o Z Z o I 8 8 Q ! l q q l 8 >.",
"u $ # ` ,.<.L e 5 b :.l 8 y y 7 8 L 1...R X X X X e 5 M M z ~ a D v # ` ,.<.L e 5 b :.l 8 y y 7 8 L 1...R X X X X e 5 M M 5 s o ",
"u u i p 8 R K ^ b 5 s 8 7 : > 3 W 1.2.3.4.2 2 O 5.6.6   1 b ^ | J # v p 8 R K ^ b 5 s 8 7 : > 3 W 1.2.3.4.2 2 O 5.6.6   1 7.w 2 ",
"$ # # 7 P 8...$.*.5.#.< > : > j 9.:.0.=.5 b $.5 7.1   6 6.O 2 C a > : 7 P 8...$.*.5.#.< > : > j 9.:.0.=.5 b $.5 7.1   6 6.5.O O ",
"# : > N 4 4.2.q.w.O X < y > >.o q b d 6.*.w e e.5 M M 5 e X X a c > y N 4 4.2.q.w.O X < y > >.o q b d 6.*.w e e.5 M M 5 e X X o ",
"@ % o x r.$.q.t.5 $.~ o % % o 8.y.w.*.b w g { ! X.q 2 g f I 8 % @ % o x r.$.q.t.5 $.~ o % % o 8.y.w.*.b w g { ! X.q 2 g f I 8 / ",
"+ 2 2 w k *.w.d u.7.w 2 2 q 2 y.i.t.$.r.~ f [ H a % o P I 8 4 q q 2 2 w k *.w.d u.7.w 2 2 q 2 y.i.t.$.r.~ f [ H a % o P I a C Z ",
"+ & & 2 5.5.2 2 5.5.2 2 O 5 *.d p.3.4.h f a.: # > [ 8 8 c J | _ Z & & 2 5.5.2 2 5.5.2 2 O 5 *.d p.3.4.h f a.: # > [ 8 8 c ` ,.s.",
"@ @ @ % X X % % X X % o X e.5 *.5 y.d.{ S > : > a.8 4 C J H } @.@ @ @ % X X % % X X % o X e.5 *.5 y.d.{ S > : > a.8 4 C J p J @.",
"> > : c 8 f I I N a c I P e.6.  * d 0.f.X % % o o x V s.@.: y > > > : c 8 f I I N a c I P e.6.  * d 0.f.X % % o o x V s.@.: y > ",
"> y > 3 C l { P C W 8 f l g.h.- = j.s.k.5.5.5.O l.z B _ @ : y > > y > 3 C l { P C W 8 f l g.h.- = j.s.k.5.5.5.O l.z B _ @ : y > ",
"@.a 7 / q z r L ' | 8 f 4 z 7.z.- - x.1 1 1   u.d 2 2 h 8 [ 8 @ @.a [ / q z r L ' | 8 f 4 z 7.z.- - x.1 1 1   u.d 2 2 h 8 7 N % ",
"s.C f #.5.b r.E G a 7 [ 8 r w   z.- x.1 1 1 1 d q.X o 8 I c.l _ s.4 { #.5.b r.E G a 7 [ 8 r w   z.- x.1 1 1 1 d q.X o 8 I 8 h & ",
"q ..8.q.d b r.C 8 [ } J 7 f ;.w.v.u.d . . d u.d e.{ Q Q f r z B z 4.d.q.d b r.C 8 [ } J 7 f ;.w.v.u.d . . d u.d e.{ Q Q f r z M ",
"#.8.4.w b w ~ 8 I } T T J Q A e.$.z %.#.#.e.d 7.z g A A ;.z B w q.3.y.w b w ~ 8 I } T T J Q A e.$.z %.#.#.e.d 7.z g A A ;.w b.* ",
"` 0.d b :.l 8 >.: f.y.y.-.7 f L E ) a < n.U O b z 4.8.e 5 b w y.i.p.d b :.l 8 >.: f.y.y.-.7 f L E ) a < n.U O b z 4.8.e 5 7.5 5.",
"m.6.u.5 s 8 7 # $ M.f.` p J | ' G 8 c y < X q w e.d...^ b d q.3.T 5 *.5 s 8 7 # $ M.f.` p J | ' G 8 c y < X q w e.d...^ b d e.N.",
"= 1 1 ; #.( # u u i # : : J T | 8 a.0 B.} G E ..8.2...^ *.k.f.f.5.M M ; #.( # u u i # : : J T | 8 a.0 B.} G E ..8.2...^ *.k.X ( ",
"-   1 O N.( # u u u $ # 0 H a a 7 >.: -.V.' O.R K K R s 5 5.N.#.5.M M O N.( # u u u $ # 0 H a a 7 >.: -.V.' O.R K K R s 5 O o >.",
"- 6 w...R a D i u u $ 9 -.j o X / a c ` T C P f | | 8 X O O X #.k.7.w ..R a D i u u $ 9 -.j o X / a c ` T C P f | | 8 X O O o >.",
"=  .q.C.1.| ` # $ $ # ` ,.Z O 5.2 4 a H a N I 7 J } 7 o 2 O #.#.5.5 e.C.1.| ` # $ $ # ` ,.Z O 5.2 4 a H a N I 7 J } 7 o 2 O o ( ",
"* 5.#.X 2 _ j : # $ # J | z *.* M q % [ P o % a c > : @ q w s s w O #.X 2 _ j : # $ # J | z *.* M q % [ P o % a c > : @ q w r o ",
"t O X X 2 q % y # u i D a r 5 t m 2 o f ;.2 q 4 a y > j + b w $.b O #.X 2 q % y # u i D a r 5 t m 2 o f ;.2 q 4 a y > j + b z 2 ",
"+ l 8 o 2 z x a c v $ # y o O b w n f o 2 m M 2 % : : 3 l O 2 2 2 l 8 o 2 z x a c v $ # y o O b w n f o 2 m M 2 % : : 3 l O 2 O ",
"% N c % 2 B V C 8 > v # : % Z z e A S % q m M O % 0 # D 8 X o o % 8 7 % 2 B V C 8 > v # : % Z z e A S % q m M O % 0 # D 8 X o o ",
"# : : 8 l 2 q F G a H 0 # J C K L P I 8 l z b 2 o > # 9 a % % a c > > 8 l 2 q F G a H 0 # J C K L P I 8 l z b 2 o > # 9 a o o o ",
"$ # 0 7 8 U X L Y T a > # H f R E W N Q ! ~ ^ q / ( > J ) _ _ C a > > 7 8 U X L Y T a > # H f R E W N Q ! ~ ^ q / ( > J ) q 2 O ",
"$ 9 ` @ % X X L ' ] G 8 7 [ { R ' Y G f Q 8 l F G a c } |  . .| } H } @ % X X L ' ] G 8 7 [ { R ' Y G f Q 8 l F G a c } | _ Z + ",
"# J W _ & 2 2 ..R L F h f f X...L L F C a Q o.O.] T ` H } +.+.} H } | _ & 2 2 ..R L F h f f X...L L F C a Q o.O.] T ` H } @.@ @ ",
"# J W _ + & _ h A #.2 $.s %.^ q X X 2 _ @ I P &.Y T J > y : 0 0 # ` | _ + & _ h A #.2 $.s %.^ q X X 2 _ @ I P &.Y T J > y : 0 # ",
"$ 9 ` @ % % @ N Q #.O *.w z B 2 U X 2 & % N C ] =.a c : > : # $ $ 9 -.@ % % @ N Q #.O *.w z B 2 U X 2 & % N C ] =.a c : > : # $ ",
"u $ # H a N I Q f s 5 *.$.& 2 X.! o 2 2 o 8 C | 8 Q 8 j j 3 p v $ $ # H a N I Q f s 5 *.$.& 2 X.! o 2 2 o 8 C | 8 Q 8 j j a H # ",
"u $ 0 J T C P A ;.:.b w r o o 8 S o Z Z o I 8 8 Q ! l q q h 8 > v $ 0 J T C P A ;.:.b w r o o 8 S o Z Z o I 8 8 Q ! l q q l 8 >.",
"u $ # ` ,.<.L e 5 b :.l 8 y y 7 8 L 1...R X X X X e 5 M M z ~ a D v # ` ,.<.L e 5 b :.l 8 y y 7 8 L 1...R X X X X e 5 M M 5 s o ",
"u u i p 8 R K ^ b 5 s 8 7 : > 3 W 1.2.3.4.2 2 O 5.6.6   1 b ^ | J # v p 8 R K ^ b 5 s 8 7 : > 3 W 1.2.3.4.2 2 O 5.6.6   1 7.w 2 ",
"$ # # 7 P 8...$.*.5.#.< > : > j 9.:.0.=.5 b $.5 7.1   6 6.O 2 C a > : 7 P 8...$.*.5.#.< > : > j 9.:.0.=.5 b $.5 7.1   6 6.5.O O ",
"# : > N 4 4.2.q.w.O X < y > >.o q b d 6.*.w e e.5 M M 5 e X X a c > y N 4 4.2.q.w.O X < y > >.o q b d 6.*.w e e.5 M M 5 e X X o ",
"@ % o x r.$.q.t.5 $.~ o % % o 8.y.w.*.b w g { ! X.q 2 g f I 8 % @ % o x r.$.q.t.5 $.~ o % % o 8.y.w.*.b w g { ! X.q 2 g f I 8 / ",
"+ 2 2 w k *.w.d u.7.w 2 2 q 2 y.i.t.$.r.~ f [ H a % o P I 8 4 q q 2 2 w k *.w.d u.7.w 2 2 q 2 y.i.t.$.r.~ f [ H a % o P I a C Z ",
"+ & & 2 5.5.2 2 5.5.2 2 O 5 *.d p.3.4.h f a.: # > [ 8 8 c J | _ Z & & 2 5.5.2 2 5.5.2 2 O 5 *.d p.3.4.h f a.: # > [ 8 8 c ` ,.s.",
"@ @ @ % X X % % X X % o X e.5 *.5 y.d.{ S > : > a.8 4 C J H } @.@ @ @ % X X % % X X % o X e.5 *.5 y.d.{ S > : > a.8 4 C J p J @.",
"> > : c 8 f I I N a c I P e.6.  * d 0.f.X % % o o x V s.@.: y > > > : c 8 f I I N a c I P e.6.  * d 0.f.X % % o o x V s.@.: y > ",
"> y > 3 C l { P C W 8 f l g.h.- = j.s.k.5.5.5.O l.z B _ @ : y > > y > 3 C l { P C W 8 f l g.h.- = j.s.k.5.5.5.O l.z B _ @ : y > ",
"@.a 7 / q z r L ' | 8 f 4 z 7.z.- - x.1 1 1   u.d 2 2 h 8 [ 8 @ @.a [ / q z r L ' | 8 f 4 z 7.z.- - x.1 1 1   u.d 2 2 h 8 7 N % ",
"s.C f #.5.b r.E G a 7 [ 8 r w   z.- x.1 1 1 1 d q.X o 8 I c.l _ s.4 { #.5.b r.E G a 7 [ 8 r w   z.- x.1 1 1 1 d q.X o 8 I 8 h & ",
"q ..8.q.d b r.C 8 [ } J 7 f ;.w.v.u.d . . d u.d e.{ Q Q f r z B z 4.d.q.d b r.C 8 [ } J 7 f ;.w.v.u.d . . d u.d e.{ Q Q f r z M ",
"#.8.4.w b w ~ 8 I } T T J Q A e.$.z %.#.#.e.d 7.z g A A ;.z B w q.3.y.w b w ~ 8 I } T T J Q A e.$.z %.#.#.e.d 7.z g A A ;.w b.* ",
"` 0.d b :.l 8 >.: f.y.y.-.7 f L E ) a < n.U O b z 4.8.e 5 b w y.i.p.d b :.l 8 >.: f.y.y.-.7 f L E ) a < n.U O b z 4.8.e 5 7.5 5.",
"m.6.u.5 s 8 7 # $ M.f.` p J | ' G 8 c y < X q w e.d...^ b d q.3.T 5 *.5 s 8 7 # $ M.f.` p J | ' G 8 c y < X q w e.d...^ b d e.N.",
"=     5.X y # u u $ # : # -.T ,.3 > # B.3 G K 4.2.d.4.z *.k.f.f.5.M 1 5.X y # u u $ # : # -.T ,.3 > # B.3 G K 4.2.d.4.z *.. X ( ",
"- x.x.5.o : # u u u $ $ $ 9 -.` D 0 # ` | K R 8.....C.s 5 5.N.#.5.t 1 5.o : # u u u $ $ $ 9 -.` D 0 # ` | K R 8.....C.s 5 O o y ",
"B - = 5.% # $ u u u u u u $ # # $ $ # @.s.& #.#.q q N., ; O o U k.1 1 5.% # $ u u u u u u $ # # $ $ # @.s.& #.#.q q N., ; 2 j : "
};
