/* XPM */
static char *result[] = {
/* columns rows colors chars-per-pixel */
"64 64 189 2 ",
"   c #040101",
".  c #090A04",
"X  c #0C0B0E",
"o  c #170700",
"O  c #160B02",
"+  c #1C0D02",
"@  c #150E09",
"#  c #1E1003",
"$  c #161009",
"%  c #1E160C",
"&  c #0E0D10",
"*  c #0F1011",
"=  c #141315",
"-  c #1C1C1D",
";  c #211104",
":  c #20150D",
">  c #21190E",
",  c #022600",
"<  c #082700",
"1  c #052A00",
"2  c #0B2B03",
"3  c #182900",
"4  c #162C0B",
"5  c #19300F",
"6  c #1B2D10",
"7  c #1D3113",
"8  c #1E3918",
"9  c #292A0B",
"0  c #3B2E0F",
"q  c #203316",
"w  c #26311E",
"e  c #393A15",
"r  c #1E1F21",
"t  c #211E22",
"y  c #1F2021",
"u  c #232324",
"i  c #29282C",
"p  c #30322E",
"a  c #2E2F30",
"s  c #302D31",
"d  c #353436",
"f  c #393737",
"g  c #3A353C",
"h  c #4D2A02",
"j  c #532F03",
"k  c #5B3A0D",
"l  c #653C0A",
"z  c #693E0C",
"x  c #4E3B23",
"c  c #195108",
"v  c #21540E",
"b  c #235412",
"n  c #1A6E03",
"m  c #22760D",
"M  c #33402B",
"N  c #334D2D",
"B  c #3B5C25",
"V  c #6F4105",
"C  c #744507",
"Z  c #784707",
"A  c #764608",
"S  c #7D4B0B",
"D  c #674213",
"F  c #694214",
"G  c #784B11",
"H  c #79511B",
"J  c #6A4C26",
"K  c #6B4D29",
"L  c #6C5231",
"P  c #705430",
"I  c #547F38",
"U  c #3F3D40",
"Y  c #403F41",
"T  c #424243",
"R  c #4D4D4D",
"E  c #585857",
"W  c #5D605A",
"Q  c #615E61",
"!  c #646464",
"~  c #6C6C6D",
"^  c #706D70",
"/  c #767676",
"(  c #7A7A7B",
")  c #814E0B",
"_  c #84510E",
"`  c #8A550F",
"'  c #855414",
"]  c #8B5610",
"[  c #8C5915",
"{  c #8B5A19",
"}  c #915D18",
"|  c #865D27",
" . c #8C5E23",
".. c #8F6124",
"X. c #87612F",
"o. c #8D632E",
"O. c #916124",
"+. c #91662E",
"@. c #8E6531",
"#. c #8F6937",
"$. c #8F6939",
"%. c #906731",
"&. c #926832",
"*. c #926C3B",
"=. c #926F41",
"-. c #937144",
";. c #168900",
":. c #1A8B00",
">. c #2B8F0D",
",. c #249A05",
"<. c #2B900E",
"1. c #2E9C0F",
"2. c #2D9110",
"3. c #309512",
"4. c #24B900",
"5. c #2ABB05",
"6. c #35B50F",
"7. c #35BE0F",
"8. c #35A114",
"9. c #37B612",
"0. c #37BF10",
"q. c #39BF11",
"w. c #539A2F",
"e. c #5A8239",
"r. c #559D33",
"t. c #589E36",
"y. c #58A432",
"u. c #5AAB34",
"i. c #2DC007",
"p. c #37C110",
"a. c #3DC115",
"s. c #40C217",
"d. c #41C318",
"f. c #49C41F",
"g. c #41C918",
"h. c #4CC522",
"j. c #4DC922",
"k. c #51C726",
"l. c #52CA27",
"z. c #53C728",
"x. c #54CA29",
"c. c #5DC233",
"v. c #5ECB32",
"b. c #62CC35",
"n. c #66CD39",
"m. c #68CE3B",
"M. c #63D135",
"N. c #67D039",
"B. c #69D13B",
"V. c #67A242",
"C. c #69A344",
"Z. c #6AAD42",
"A. c #73B34A",
"S. c #72C845",
"D. c #73D144",
"F. c #76D946",
"G. c #77D248",
"H. c #7AD34A",
"J. c #7CD84C",
"K. c #8D8E26",
"L. c #C4C537",
"P. c #86D754",
"I. c #88D756",
"U. c #87D955",
"Y. c #89D957",
"T. c #8DD95A",
"R. c #90DC5D",
"E. c #C5C65D",
"W. c #FFFF5B",
"Q. c #FFFF73",
"!. c #898989",
"~. c #8F8F96",
"^. c #949494",
"/. c #969A95",
"(. c #9A9A9A",
"). c #A4A3A4",
"_. c #A8A7A9",
"`. c #ACACAC",
"'. c #AFADB0",
"]. c #B3B2B3",
"[. c #BDBCBD",
"{. c #C6C7A8",
"}. c #FFFFBE",
"|. c #C0BEC1",
" X c #C3C3C3",
".X c LightGray",
"XX c #DDDDDD",
"oX c #E6E6E6",
"OX c gray98",
/* pixels */
"4.d.D.D.q.d.D.T.T.T.T.S.a.4.4.4.4.d.G.T.T.T.T.T.T.T.T.S.a.d.D.D.s.s.D.D.a.a.D.T.T.T.T.S.a.4.4.5.4.s.S.T.T.T.T.T.T.T.T.S.a.a.D.R.",
"4.a.D.D.d.a.D.T.T.T.T.G.k.p.5.4.4.d.S.P.J.D.D.G.P.T.Y.D.a.0.b.b.q.q.D.D.a.a.D.T.T.T.T.G.j.a.5.4.4.s.D.Y.H.G.D.H.P.T.T.D.q.0.v.D.",
"4.d.D.D.d.a.D.T.T.T.I.P.G.v.a.4.4.q.D.H.z.a.a.z.G.T.T.D.a.5.q.q.5.s.G.S.s.a.D.T.T.I.I.P.H.v.a.4.4.s.D.H.z.d.q.z.G.T.T.D.q.5.0.a.",
"q.z.H.D.a.7.v.G.P.I.T.T.R.D.a.5.q.z.J.S.a.4.4.q.D.T.T.G.z.a.a.a.d.z.G.G.a.7.v.G.I.I.T.T.T.D.a.5.p.z.H.D.q.4.4.d.D.T.T.G.z.d.a.a.",
"D.H.P.D.a.4.7.k.G.R.T.T.T.D.q.q.b.H.T.G.q.4.4.s.D.T.T.P.G.D.D.D.D.H.P.D.s.5.7.k.G.T.T.T.T.G.q.q.b.J.T.S.a.4.4.q.D.T.T.P.H.G.D.D.",
"T.T.T.H.z.a.a.h.n.G.I.T.T.G.k.h.n.H.P.G.z.7.5.s.D.T.T.P.G.D.D.G.P.T.T.H.z.a.a.h.n.G.P.T.T.G.z.h.n.G.I.G.k.7.5.a.D.T.T.P.H.G.D.D.",
"T.T.T.P.H.D.D.n.f.k.G.T.T.P.H.n.f.h.G.T.H.v.7.q.D.T.T.G.z.a.q.z.H.T.T.Y.H.D.D.n.f.k.G.T.T.P.H.m.h.k.G.I.J.b.7.q.D.T.T.H.z.q.q.d.",
"T.P.G.S.D.D.D.m.f.f.n.G.P.T.H.n.h.f.n.G.T.H.z.h.b.H.Y.G.k.a.a.h.H.P.H.S.D.D.D.b.f.h.n.G.P.P.H.m.h.f.n.G.Y.G.z.h.n.G.I.H.z.d.q.q.",
"T.G.z.q.q.s.q.h.n.n.h.z.H.G.z.h.m.n.h.z.H.T.H.n.f.k.G.P.H.B.B.F.P.H.k.a.a.s.a.f.m.m.f.z.H.H.z.h.n.n.h.k.G.T.H.n.h.h.G.P.G.D.D.S.",
"T.G.k.q.d.s.q.z.H.G.q.q.b.b.q.q.D.G.q.q.S.I.J.M.f.k.G.T.T.R.R.T.Y.G.h.a.a.a.a.k.J.D.s.0.v.v.0.q.D.D.a.a.S.I.H.b.h.h.G.T.T.T.T.Y.",
"T.P.G.D.D.D.D.G.I.G.q.5.q.0.5.q.D.D.a.a.D.H.k.f.b.G.P.T.T.T.T.T.I.P.G.B.D.S.B.H.I.D.a.5.q.7.5.s.D.D.a.a.D.H.k.h.n.G.I.T.T.T.Y.T.",
"I.T.T.P.H.H.P.T.H.b.q.5.0.s.d.z.H.D.a.a.D.H.k.k.J.Y.J.D.G.H.U.T.T.R.R.Y.J.J.Y.P.J.b.q.5.7.a.a.z.J.D.a.a.D.H.k.k.G.I.H.D.D.G.P.T.",
"T.I.T.G.h.z.H.H.z.0.5.q.v.G.D.G.Y.D.a.a.D.I.H.H.Y.P.l.a.a.z.J.R.R.R.R.P.j.l.J.P.z.0.5.p.v.D.D.H.I.D.q.a.G.P.G.G.T.H.z.q.q.z.H.R.",
"I.T.T.G.k.h.n.b.0.5.0.z.G.T.T.I.G.n.h.j.m.G.G.G.Z.w.>.;.;.>.w.V.V.V.V.w.>.1.w.u.9.5.p.x.J.R.T.Y.G.m.h.h.m.G.G.G.D.b.q.4.4.q.v.G.",
"T.I.T.P.H.n.h.0.5.0.b.H.Y.T.T.G.k.j.B.B.l.g.g.1.b 4 < , , 2 4 q 7 7 7 4 2 2 4 v ,.a.M.J.Y.R.T.G.k.f.m.m.h.q.d.q.q.q.5.5.4.5.0.q.",
"I.T.T.P.H.m.h.q.5.q.D.R.T.T.R.D.a.6.y.r.>.;.;.m N g d d d p u - y t t t y t t q n 2.y.V.V.A.P.D.a.a.b.n.q.5.q.q.5.5.5.5.9.d.s.s.",
"T.T.T.G.z.h.m.b.q.a.G.R.T.R.R.F.a.,.v 4 < , , N /.|.'._._.(.( ~ ~ ^ ~ ~ ~ ^ ^ E 8 2 6 7 6 B A.F.g.i.p.a.5.p.b.b.0.4.4.q.b.D.D.D.",
"S.D.D.v.0.0.b.b.p.a.v.S.Z.V.C.w.<.m N g d s s Q |.oXoXXX.X|.).^.^.^.^.^.^./.(.( U - & = - M e.y.3.:.:.,.6.x.J.H.z.q.s.z.G.I.G.G.",
"a.a.a.0.5.5.q.q.5.i.a.8.b 6 6 4 1 N /. X'.).)._.`.[..X.X].).(.^.^.^.^.^.^.^.^.!.( Q T T Q W M 4 2 , 1 v u.P.U.U.H.D.D.H.I.H.k.q.",
"a.a.a.a.s.d.a.a.d.9.,.m N g d s p Q [.oXoXXX.X|.`.`. X[.).!.~.~.^.^.^.^.^.^.^.!.!./ ! ! ( ~ g - = & & w I A.P.Y.R.I.G.H.I.G.z.q.",
"D.S.D.D.G.G.S.D.D.u.c N /.|.'.)._._.`.[..X.X].'. X X'.(.^.~.^.^.^.^.^.~.^.^.^.!.! ! ( ( ! ! ~ ! T d d p w B A.R.R.G.k.h.G.P.H.D.",
"T.T.T.I.G.H.Y.Y.J.r.4 g |.OXXX.X.X X`.`. X X'.'. X{.).~.^.^.^.^.^.^.^.^.^.~.!./ ! ! ( / E E / / E R R d X 6 t.H.D.v.7.a.S.T.T.T.",
"T.T.T.G.k.z.J.J.x.>.< g ].oX[._._.]. X X].]. X X].).(.^.^.^.^.^.^./.^.^.^.!.~ ~ / ( ~ E R R E E E R R d & 2 2.d.g.0.5.a.D.T.T.T.",
"D.H.P.D.a.7.v.N.h.>.< u ( (.( ~ ~ ( (.(.( ( (.(.( ~ ~ ~ ^ ^ ~ ~ ~ ~ ^ ^ ^ Q Y M ! ! T d d d d d d d f i X < :.5.a.s.a.k.H.P.H.D.",
"a.k.H.D.s.5.7.j.N.t.5 X u a u r - u a a u u p a u y y y y y y 6 t t u u y - * = 6 r = & & & & * * * * X   2 :.a.v.D.D.H.I.G.z.a.",
"a.f.m.b.q.5.7.k.J.C.q   @ : > > % % % % % % % % # # % $ . X a f e 9 .   $ > > > % % % > > > > > % % % @ . 1 :.a.b.J.I.I.H.b.0.4.",
"D.m.h.7.5.0.v.J.Y.C.q @ x L L L L L L L L L L J F F K x $ i ~.{.E.K.9 O x P P P L L L L L L L L L K F j O 1 :.i.p.z.J.H.z.q.5.4.",
"G.b.q.5.0.z.G.R.R.V.7 : P -.-.-.-.-.-.*.*.$.-.$.O.O.&.K # f {.}.Q.L.e % K *.*.-.*.*.-.-.*.*.-.-.*.&.} V ; 1 :.i.a.f.m.b.q.5.q.q.",
"d.q.5.q.b.G.P.T.T.V.7 : L -.-.-.-.-.-.$.....$.-.*.&.O.D # M E.Q.W.L.e # F +.*.*.....$.$.....*.$...} } V ; 1 :.a.b.m.h.0.5.q.b.G.",
"5.4.4.s.D.R.T.T.R.V.7 : L -.=.$.$.$.=.$.....o.#.&.&...D # 9 K.L.L.K.9 + D ..@.+. ...@.@.....@.o.{ ] ] z # 2 2.j.m.n.h.0.5.d.G.T.",
"4.4.4.s.G.R.T.T.Y.V.7 : L -.-.*.....#.*.$.@...{ { ..&.L > . 9 e e 9 . : K @.....@.o. ...o.@...[ ] ] ] z ; 7 r.B.h.h.n.v.q.s.D.T.",
"5.5.q.h.n.G.P.T.R.Z.7 > L =.*.@.|  .o.#.$.X.| [ { ..*.P 0 O O + + # : e P +.[ [ o.o.[ { o.o.{ ] ] ] ] l # q C.J.k.k.H.G.s.q.G.T.",
"5.q.b.m.h.j.H.T.T.C.7 : L *. . .o.@.| { {  .@.$.$.$.=.X.k j k z z D K P | { ] ] { { ] ] { { ' ] ] ] ] F + 7 C.Y.J.D.P.D.a.a.D.R.",
"4.d.D.G.a.a.D.R.T.C.7 : K %. . .@.o. .{ {  .@.$.#.#.#.X.H G ` ] { ..&.o.{ ` ` ] ` ] ] ] ] ] ` ` ] ] ] l # 7 r.J.Y.R.T.D.a.p.v.D.",
"4.q.D.D.a.a.D.T.R.C.6 ; z ..%.o... .o.$.#.@. .{ { { { | o.X.[ [ +.&...{ ] ` ] ] ` ` ] ] ] ` ` ` ] ] ] V ; 2 <.z.H.T.T.D.q.5.7.a.",
"a.z.G.D.a.7.v.J.T.C.q % z ..%.%. . .@.$.#.@. .{ ] ' [ ..@.o.....@.o.{ ] ] ] ] ` ] ] _ ] ` ] ] ` _ _ ] z ; 1 ;.g.D.T.T.H.z.a.a.d.",
"D.H.P.D.s.5.7.k.J.C.7 % K %. . .o.@...{ {  .@.o.{ [ X.@... .@.@. .{ ] ` ] ] ` ] ] ] ] ] ] ] ] ) A S _ z ; 1 ;.g.D.T.T.P.H.G.G.S.",
"T.T.T.H.z.a.a.h.N.y.6 % K %... .@.o.{ ` [  .@.@.....@.o.{ { o.o.{ ` ] ` ] ] ] ` ) _ ' ` ] ] _ S C C ) l ; 1 ;.s.D.T.T.P.H.D.D.D.",
"T.T.T.P.G.D.D.N.j.2.2 # F ..%.@. .{ ` { o.@. . .@.@...{ ` ' { { ] ` ] ] ] ] ] _ C A ) ] ] _ A C S S Z j + , ;.g.D.R.T.G.k.a.a.a.",
"T.P.G.D.D.D.D.n.j.>.2 : F ..%.@.{ ` { ..@.o.{ { o.o.{ ` ] ` ] ` ] ` ] ] ] _ _ S C A _ ] _ S C A S ) C j + 2 3.j.M.H.P.H.h.a.a.a.",
"T.G.k.q.a.a.d.h.B.y.6 > K %. .{ ` { o.@...{ ` ' { { ] ] ] ] ` ` ` ` ' ] ` _ Z C S _ ] _ C C S S C C S l + 7 y.N.j.k.G.P.H.D.D.S.",
"T.G.k.q.a.a.a.z.J.C.7 % K %.[ ] {  .@.X.' _ ` ] ] ` ] ] ` ] ] ] ] ` _ _ ) S C C _ ` _ S C C _ _ V C _ z # 5 t.N.j.h.G.T.T.T.T.Y.",
"T.P.D.S.D.D.D.H.P.C.q # z { [ { X.o...' C C _ ] ` ] ] ` ] ] ` ] ] _ A V z C ) _ ` _ A C S ' ] ) V C ' z # 2 2.j.n.H.P.T.T.T.T.Y.",
"P.T.T.P.H.H.P.Y.J.r.7 # z [ {  .X.X.[ _ A C _ ] ] ` ` ] ] ] ] ` _ S C V C C S ) ` _ C C S _ ) S C C S l + 2 2.x.H.Y.H.D.D.H.P.T.",
"Y.T.T.G.j.k.H.J.x.2.2 # z } +.X.H G _ ` _ _ ] ] ] ` ] ] ] ] ] _ C C S _ ) S C C _ ` _ S A C V C S ) Z j + 5 r.J.Y.J.k.a.a.k.G.R.",
"T.Y.T.G.h.h.n.b.a.:., # z } &.| S Z ` ] ] ] ] ] ] ] ] ] ] ] _ S C C S ' ] _ Z C S _ _ S C V C C ) S C h o 6 r.G.D.v.0.4.4.p.v.D.",
"I.T.Y.P.H.n.h.p.5.:., + z } } { ' _ ` ] [ ] ` ] ` ] ] ] ] _ S A S S A S ` ] _ ) A C V A ) _ _ S Z z z j o 2 3.g.d.a.6.4.4.5.q.a.",
"T.Y.T.P.H.n.h.a.5.,.v e k z z z z l z z z l z z z z z z l l j j l l j j l z F l j h h j l z z l j h h 0 3 c 1.p.5.4.4.5.q.d.d.a.",
"T.T.T.H.k.h.m.b.q.9.u.e.e + + ; # # # ; # + # # + # # # # + O + + + + + + ; ; + + o O + ; ; ; ; + o o 3 n 1.c.b.0.4.4.0.b.G.D.D.",
"S.D.D.v.7.7.b.b.7.a.M.u.b , , 2 7 7 2 2 5 q 7 7 7 7 q q 7 5 2 1 1 1 1 2 1 1 1 2 1 1 1 2 1 1 1 2 6 6 < c 8.x.J.J.z.a.s.z.H.I.G.D.",
"a.a.a.p.5.5.q.q.5.5.a.9.,.:.;.3.t.t.2.<.w.V.V.Z.V.V.C.C.C.y.2.:.;.:.:.:.:.:.:.:.;.:.:.:.:.:.:.3.t.t.2.1.c.H.P.P.G.D.D.J.T.H.k.q.",
"a.a.a.a.d.d.s.a.d.d.a.a.g.a.i.s.M.B.j.z.J.R.R.R.R.Y.J.J.U.J.x.a.g.d.g.g.d.d.g.g.d.d.g.g.g.p.i.a.M.B.j.z.J.R.T.T.T.P.G.H.P.G.k.q.",
"D.D.D.D.D.D.D.D.D.D.D.D.D.b.a.5.a.j.N.J.Y.T.R.T.T.J.k.k.J.U.J.D.D.D.D.D.G.D.D.D.H.D.F.D.G.n.a.5.a.j.B.J.I.T.T.T.T.G.k.z.G.P.G.D.",
"T.T.T.P.H.H.I.I.H.G.I.I.J.b.a.4.4.a.b.D.D.D.S.G.D.v.7.q.D.T.T.T.R.T.T.Y.H.H.Y.Y.H.H.P.Y.H.b.p.4.4.q.n.D.D.D.S.G.D.v.7.a.S.T.T.T.",
"T.T.T.H.k.k.J.G.z.k.H.H.k.7.5.4.4.5.a.d.s.d.s.s.a.p.4.a.D.T.T.T.T.T.T.H.z.z.H.J.k.k.H.H.z.0.5.5.4.5.a.d.s.s.s.s.d.0.5.q.D.T.T.T.",
"S.H.P.D.a.7.v.n.h.k.G.J.k.a.5.4.4.5.4.4.4.4.4.5.a.a.a.x.G.P.H.D.D.H.P.D.q.7.v.n.f.k.G.J.k.0.5.4.5.4.4.4.4.4.4.5.q.a.a.z.G.I.G.D.",
"q.k.G.G.q.5.7.h.n.G.P.I.G.b.0.4.4.4.4.4.4.4.4.q.b.D.G.H.T.H.z.q.a.k.H.D.d.5.7.f.n.G.I.I.G.b.q.4.4.5.4.4.4.4.5.q.b.G.D.G.I.G.z.q.",
"q.h.m.b.q.5.7.k.G.P.G.G.I.H.z.q.5.5.q.f.s.q.5.q.b.H.I.T.G.v.0.5.7.h.m.b.q.5.7.k.G.P.G.G.I.H.z.q.5.5.q.s.d.q.5.q.b.G.T.T.H.v.q.4.",
"G.m.h.q.5.q.b.G.I.G.k.k.G.I.J.b.q.7.b.G.G.b.q.5.0.z.H.H.z.0.4.p.b.m.h.7.5.q.v.G.T.G.k.h.G.I.H.b.q.0.b.G.G.b.q.5.0.z.H.H.z.q.5.4.",
"G.n.q.5.7.z.G.R.T.G.h.k.G.I.H.n.f.k.G.T.T.G.s.5.0.h.n.b.0.5.a.h.m.b.a.5.q.z.H.T.T.G.h.h.G.I.H.m.h.k.H.T.T.G.q.5.7.h.m.b.q.5.q.s.",
"s.q.5.q.b.H.I.T.I.P.G.G.P.G.k.f.b.G.I.T.T.G.q.q.b.m.h.0.5.9.b.m.h.0.5.q.b.G.I.T.T.P.D.G.P.G.k.h.b.G.I.T.R.G.q.0.v.m.h.0.5.q.b.G.",
"4.4.4.f.D.T.T.Y.T.I.T.T.T.G.k.k.G.T.T.P.G.n.h.h.n.m.h.0.5.d.G.G.d.4.4.d.D.T.T.T.I.T.T.T.T.G.h.k.G.T.T.P.G.n.h.h.m.m.h.0.5.s.G.T.",
"4.4.4.s.D.T.T.I.I.I.T.T.T.P.G.G.P.T.T.G.k.h.n.m.h.h.n.v.q.s.G.D.d.4.4.a.S.T.T.I.I.T.T.T.T.P.D.G.P.T.T.G.z.h.m.m.h.h.m.v.9.s.D.T.",
"5.4.4.s.S.T.T.T.I.T.I.T.I.I.T.I.T.T.T.G.q.q.G.G.q.q.G.G.s.q.D.G.d.4.4.a.D.T.T.T.T.I.I.I.T.I.T.T.T.Y.T.S.q.q.G.H.q.q.D.G.d.q.D.T."
};
