/* XPM */
static char *result[] = {
/* columns rows colors chars-per-pixel */
"64 64 235 2 ",
"   c #000000",
".  c #07060B",
"X  c #0A0A0C",
"o  c #1B030B",
"O  c #0E1308",
"+  c #090B14",
"@  c #0E1217",
"#  c #181517",
"$  c #28070B",
"%  c #2B0810",
"&  c #390D16",
"*  c #271615",
"=  c #082902",
"-  c #172B0C",
";  c #1A2A14",
":  c #133310",
">  c #252A1C",
",  c #34281C",
"<  c #243518",
"1  c #151825",
"2  c #1C1C22",
"3  c #10182A",
"4  c #231E26",
"5  c #1D2425",
"6  c #1A2D3A",
"7  c #252827",
"8  c #25252A",
"9  c #2B2B2E",
"0  c #382B28",
"q  c #31322F",
"w  c #272935",
"e  c #2B2C32",
"r  c #2B3339",
"t  c #34333B",
"y  c #36393B",
"u  c #4A1116",
"i  c #4B2D1B",
"p  c #5B0A21",
"a  c #6A0A26",
"s  c #661222",
"d  c #462E2D",
"f  c #563938",
"g  c #732B23",
"h  c #763C35",
"j  c #144E06",
"k  c #29451E",
"l  c #265614",
"z  c #1B700B",
"x  c #23760D",
"c  c #2D6F14",
"v  c #2E4527",
"b  c #395A27",
"n  c #354A33",
"m  c #317130",
"M  c #526818",
"N  c #4B4B2F",
"B  c #79403B",
"V  c #645635",
"C  c #517A30",
"Z  c #716937",
"A  c #1D2948",
"S  c #242E49",
"D  c #29324F",
"F  c #383944",
"G  c #2B3959",
"H  c #2D3D66",
"J  c #3B3F63",
"K  c #423F49",
"L  c #394448",
"P  c #30494C",
"I  c #2D4658",
"U  c #394A57",
"Y  c #364B6A",
"T  c #374877",
"R  c #385774",
"E  c #454649",
"W  c #44534E",
"Q  c #464556",
"!  c #485A57",
"~  c #6A4848",
"^  c #764B46",
"/  c #70574C",
"(  c #635956",
")  c #526854",
"_  c #4F5D63",
"`  c #4B557C",
"'  c #556966",
"]  c #44647D",
"[  c #536B75",
"{  c #686A74",
"}  c #81192B",
"|  c #8B1B2D",
" . c #911F2F",
".. c #862429",
"X. c #8E232E",
"o. c #93252C",
"O. c #982331",
"+. c #A42A32",
"@. c #AB2D34",
"#. c #A53634",
"$. c #B53236",
"%. c #BC3637",
"&. c #BE3738",
"*. c #C03738",
"=. c #C13938",
"-. c #8C4237",
";. c #BA4F3A",
":. c #CA433C",
">. c #CD4B3E",
",. c #D3493E",
"<. c #D1503F",
"1. c #8D544E",
"2. c #AE5242",
"3. c #80674D",
"4. c #8D7B6F",
"5. c #C45D47",
"6. c #D15240",
"7. c #DB5542",
"8. c #E65D44",
"9. c #EA5F46",
"0. c #D66449",
"q. c #EA6346",
"w. c #EC694A",
"e. c #F26948",
"r. c #F96C4A",
"t. c #1A8B00",
"y. c #1F9901",
"u. c #2E900B",
"i. c #259808",
"p. c #2E9711",
"a. c #359817",
"s. c #2DA50D",
"d. c #27B404",
"f. c #24B900",
"g. c #2ABB05",
"h. c #35BE0F",
"j. c #38A218",
"k. c #37B612",
"l. c #37BF10",
"z. c #39BF11",
"x. c #3A9A22",
"c. c #4AA31C",
"v. c #529126",
"b. c #518534",
"n. c #589E34",
"m. c #4BB626",
"M. c #59A636",
"N. c #62AD3C",
"B. c #2DC007",
"V. c #36C10F",
"C. c #37C311",
"Z. c #3DC115",
"A. c #40C118",
"S. c #42C519",
"D. c #48C41F",
"F. c #4CC522",
"G. c #4CCA23",
"H. c #51C726",
"J. c #51CA26",
"K. c #53C728",
"L. c #54CA29",
"P. c #5DC233",
"I. c #5ECB32",
"U. c #5AD430",
"Y. c #62CC35",
"T. c #66C63A",
"R. c #66CD39",
"E. c #68CE3B",
"W. c #6AD33C",
"Q. c #5B8447",
"!. c #6A8647",
"~. c #5EB340",
"^. c #69A743",
"/. c #74B348",
"(. c #74B44C",
"). c #75CA47",
"_. c #73D144",
"`. c #74D346",
"'. c #74DA44",
"]. c #77D248",
"[. c #7AD34A",
"{. c #7CDA4C",
"}. c #849253",
"|. c #84AF4F",
" X c #89A955",
".X c #998577",
"XX c #B3896D",
"oX c #B68B6D",
"OX c #A68375",
"+X c #B98A76",
"@X c #93AC64",
"#X c #C1896B",
"$X c #83CA57",
"%X c #86D755",
"&X c #88D756",
"*X c #86D956",
"=X c #89D957",
"-X c #8CD95A",
";X c #90DB5D",
":X c #91E15D",
">X c #92DE63",
",X c #9AE26E",
"<X c #3A4E83",
"1X c #3C5289",
"2X c #3D6484",
"3X c #4C5E93",
"4X c #4A6E90",
"5X c #546494",
"6X c #6E728D",
"7X c #4E65A2",
"8X c #6D7AAA",
"9X c #867C92",
"0X c #817FA4",
"qX c #748D92",
"wX c #7C85AE",
"eX c #948B8E",
"rX c #86849C",
"tX c #AD8184",
"yX c #B89784",
"uX c #8788AA",
"iX c #8F94B2",
"pX c #A4A1B7",
"aX c #C9A795",
"sX c #DDAE9E",
"dX c #E8B38F",
"fX c #D5BCB3",
"gX c #E5BCA1",
"hX c #F4C7AB",
"jX c #F5CAAF",
"kX c #E9C7BA",
"lX c #FCD2B9",
"zX c #A09EC7",
"xX c #AFADC6",
"cX c #C3B1C6",
"vX c #EEDEE3",
/* pixels */
"f.A._._.Z.Z._.-X=X-X-X_.Z.f.f.g.f.Z._.-X-X-X-X-X-X=X-X_.Z.Z.]._.A.A._._.z.Z._.-X=X=X;XW.m.g.g.g.f.A._.-X-X-X-X-X-X-X=X_.Z.Z.].-X",
"f.A._._.Z.Z._.-X-X-X-X_.H.C.g.f.f.m._.%X[._._.].%X-X=X_.Z.z.Y.I.z.Z._._.A.A._.-X-X-X=X[.J.V.g.f.f.Z._.&X]._._.].%X-X-X_.z.l.I.].",
"f.A._._.m.C._.-X-X=X-X%X[.Y.z.f.f.A._.[.L.Z.Z.J.].-X-X_.Z.g.z.z.g.A._._.A.z._.-X-X&X&X%X].Y.m.g.f.A._.[.L.Z.Z.L.].-X-X_.Z.g.l.Z.",
"Z.K.[._.z.h.I.[.%X=X-X-X-X_.A.g.z.K.[._.Z.f.f.Z._.-X-X].K.Z.Z.Z.Z.K.[._.m.h.I.[.%X-X-X-X-XW.C.g.z.K.[._.Z.f.f.Z._.-X-X].K.Z.Z.Z.",
"_.[.%X_.z.g.h.H.].;X-X-X-X_.z.z.Y.[.&X_.Z.f.f.S._.-X-X%X]._._._._.[.&X_.C.g.B.L.[.-X-X-X;XW.V.m.Y.[.&X_.z.f.f.Z._.-X-X%X[.]._._.",
"-X-X-X[.K.z.z.F.R.].%X-X-X].H.F.E.[.&X[.L.B.B.S._.-X-X%X]._._.[.%X-X-X[.H.Z.Z.F.R.[.%X-X;XW.G.F.R.[.&X[.H.l.f.m._.-X-X%X[._._._.",
"=X=X-X%X[.]._.R.D.H.].-X-X&X[.R.D.H.[.&X[.I.c.C._.-X-X].H.z.Z.H.].;X-X&X[._._.R.D.F.[.&X-X&XW.E.F.H.[.&X[.Y.h.z._.-X-X[.K.z.z.A.",
"=X%X[._.].]._.R.D.D.R.[.&X&X[.R.D.D.R.[.&X[.J.F.Y.[.&X[.H.z.z.H.].%X]._._._._.R.D.D.Y.%X&X&X%XY.D.D.R.[.=X[.H.F.Y.[.&X[.H.Z.z.Z.",
"=X].H.Z.Z.Z.Z.F.R.R.D.L.[.].K.F.T.E.F.G.].=X[.E.F.H.[.-X]._._.[.%X].H.Z.A.A.A.F.R.R.F.H.%XW.K.S.R.R.D.H.[.=X[.R.F.F.].%X]._._._.",
"-X].H.Z.Z.Z.Z.H.[._.Z.V.Y.Y.l.z.E.%Xm.V.W.=X[.R.F.K.{.>X>X>X>X>X;X[.H.Z.A.A.V.J.%XW.A.l.I.I.z.m._._.A.C._.=X[.R.F.H.].-X-X-X-X=X",
"-X%X_._._._._.[.=X].m.g.l.h.g.A.W.W.A.A.W.].H.F.R.{.>X,X,X,X,X,X>X-X{._.W.[.W.W.;XW.A.g.V.l.g.m._._.C.Z._.[.H.F.Y.].&X-X-X-X-X=X",
"=X=X-X%X].].=X=X[.Y.B.g.l.Z.Z.K.%XW.V.A.[.%XJ.m.(.@X@X@X@X@X@X@X X X X|.|.|. X|.$XY.C.g.h.C.A.H.[._.m.z._.[.H.H.[.&X[._._.].%X-X",
"=X-X-X].H.H.[.[.K.h.g.l.I._._.[.%XW.m.A.].=X[.N.Z ~ h B h B B h B B h h B h h V c.V.B.C.U.W.W.%X=X_.Z.Z._.&X[.[.-X[.K.z.z.H.[.;X",
"=X-X-X].H.D.R.Y.z.g.h.K.[.-X;X&X%XY.S.F.N.|. X}.X.X. .X.X.X.X.X.X.X.X.X.X.X. .h M u.u.c.$X;X-X%X[.E.F.F.R._._._.].Y.z.f.d.z.I._.",
"-X-X-X%X[.E.D.V.g.l.Y.].&X-X-X].G.G.W./.3.h h -.>.6.6.6.<.<.<.<.<.<.<.6.<.<.6.;.g i i Z |.:X:X%XH.D.E.E.F.Z.Z.Z.m.V.g.f.g.g.l.Z.",
"-X-X=X%X[.E.D.V.f.m.].;X-X-X-X_.A.h.N.!...} | #.7.e.e.e.e.e.e.e.e.e.e.e.e.e.r.7.;... ...!.N.&XW.Z.h.Y.R.z.g.z.C.f.f.g.g.z.A.z.A.",
"-X-X;X[.K.H.R.Y.z.A.W.;X;X;X;XW.S.i.l i ..%.:.<.q.e.e.e.e.e.e.e.e.e.e.e.e.e.e.q.<.>.$.o.i b /.`.Z.g.z.z.g.l.Y.Y.z.f.f.z.Y.].]._.",
"_.E.W.I.h.h.Y.Y.z.z.Y.W.W.).W.W.J.u.= $ ..,.q.r.e.e.e.w.q.e.e.e.e.e.e.q.e.e.e.e.r.9.,...$ - n.E.J.V.g.g.z.K.[.[.K.z.z.K.[.=X]._.",
"m.Z.Z.V.g.g.z.z.g.g.V.A.m.A.A.S.W.n.- $ o.,.q.e.e.e.e.q.e.e.e.e.e.e.e.e.e.e.e.e.r.9.,.o.$ = u.D.W.Y.l.h.I.[.%X=X[._._.[.&X[.H.z.",
"V.Z.Z.Z.A.A.V.m.A.A.A.m.A.V.g.m.N.}., u o.:.q.e.e.e.e.e.e.e.e.q.e.q.e.e.q.e.e.e.e.8.,.o.& - c c.T.E.F.H.[.;X-X-X;X&X[.[.%X[.H.z.",
"_._.E._.W.W._._.E.$XW.W._.U.C.u.V g s s +.>.8.e.e.e.e.e.e.e.e.e.e.q.e.e.e.e.e.e.e.q.,.+.s s i M c.F.E.{.=X-X-X-X-X].J.G.].%X]._.",
"-X;X-X&X[.%X&X=XW.%X&X&X%XI.S.u.i p a } @.:.<.q.q.e.e.e.q.e.w.w.e.e.q.e.e.e.e.q.q.<.:.@.} a a i u.V.Y.]._._._._._.I.h.m._.-X-X-X",
"-X-X-X[.H.H.[.%XK.H.%XW.H.V.B.i.- $ p } $.=.:.,.9.e.e.e.e.e.e.w.e.e.e.e.e.e.e.q.,.:.=.$.} p $ - t.B.A.A.A.A.A.A.Z.h.g.z._.-X-X-X",
"_.[.&X_.z.h.I.Y.F.K.W.%XH.V.B.t.= $ s o.$.=.=.:.7.8.8.9.q.e.e.e.e.e.e.q.8.8.8.<.:.&.=.$.X.s o = t.g.g.f.f.f.f.g.z.Z.z.K.].&X]._.",
"z.J.[._.m.f.B.D.R.[.%X%X`.I.C.t.= $ g %.*.*.*.=.=.:.:.,.9.e.e.e.e.e.r.8.<.:.:.:.=.=.=.&.$...$ = t.B.g.f.f.f.g.z.Y._._.[.&X[.H.z.",
"m.S.R.Y.z.g.V.H.[.&X].[.%X%XL.u.= $ ..%.*.=.=.=.=.=.*.:.7.8.8.8.8.8.9.<.:.&.&.&.*.=.=.&.$...$ = t.B.C.A.A.z.g.z.Y.[.&X&X[.Y.z.f.",
"_.R.F.z.g.l.I.[.=X[.F.H.].=X%XM.: o p O.%.=.=.*.*.*.*.=.:.:.:.6.:.>.:.:.=.&.&.*.*.=.=.$.O.p $ = t.C.Y.]._.Y.z.g.l.K.%X[.L.V.g.f.",
"[.Y.z.g.l.H.[.;X-X_.H.F._.%X{.M.< o u s  .$.*.*.=.=.=.=.&.&.&.&.%.%.=.=.=.=.=.=.=.&.$.o.s u o : a.L.[.;X;X_.A.g.l.F.R.I.C.g.B.m.",
"A.z.g.V.Y.[.&X-X-X%X_.].%X[.L.a.k # o & s o.$.*.=.=.*.=.*.=.=.=.=.=.=.=.=.=.=.=.=.$.o.s % o * v N.*X*X-X;X_.A.V.Y.E.F.h.g.z.Y._.",
"g.g.f.C._.;X-X=X=X&X-X;X-X).j.z < 2   o s  .+.@.@.@.@.@.@.@.@.@.@.@.@.$.@.@.@.@.@.+. .s o . 2 n b.(.%X*X].R.D.D.R.E.F.h.g.A._.;X",
"f.f.f.m._.;X-X=X=X-X=X-X-XN.l - 5 2 . $ ..+.| g } } g } } } a } } } } a } g } } } X.@.} $ . 2 7 > b /.].H.D.R.R.D.F.R.Y.V.C._.;X",
"g.g.z.F.E.[.%X=X-X&X-X%X{.n.- . 8 w @ * g X.| | X.o. . . .X.O.O.X.X.X. . .X.o.X.} | o.g * @ 8 4   < ^.].H.H.[.[.H.H.]._.Z.m._.;X",
"f.V.Y.R.F.H.].-X&X-X-X[.H.u.= + e y 8 * * u o.&.<.<.<.5.<.<.<.<.6.6.<.<.<.6.6.<.%.o.u % # 7 y 9 . > ^.%X[.[.=X%X[.].%X].z.A._.;X",
"f.m.].].z.z._.-X-X-X-X].H.p.j : t F t 8 # * g #.;.0.w.r.e.r.r.r.r.e.r.r.e.w.0.;.#.g * # 8 t F r - l ^.%X[.]._.[.%X-X=X_.z.z.I._.",
"f.Z._._.A.z._.-X-X=X-X%X[.P.s.x v t F y t 9 * & N 1.0.r.r.e.w.e.e.r.r.r.r.0.1.f & * 9 t F y t v x j.).[.L.A.z.H.[.-X-X_.z.g.l.z.",
"Z.L.[._.A.z.I.[.%X-X=X-X-X'.Z.i.k 4 y K y 9 # 4 Q / 2.;.5.5.5.5.5.5.5.5.2.2./ Q 4 * 9 t E F 4 k a.L.{._.z.f.f.Z._.-X-X[.K.A.A.A.",
"_.].*X_.Z.g.h.H.[.-X-X-X-X`.Z.t.= # y F # # d ~ rX9Xf u ~ / ~ ~ ~ ~ ~ f i f 9X9X^ i * 2 F t # < M.{.=X_.Z.f.f.Z.].-X-X%X[.]._._.",
"-X-X-X].K.z.z.F.Y.[.%X-X-X[.L.p.= . 4 8 O * ^ tXcXiXe X N ( ( ( ( ( ( N X w iXcX9X^ * . 8 8 . : n.{.=X[.H.V.g.Z._.-X=X%X[._._._.",
"=X-X-X*X[.]._.R.D.F.[.-X-X*X{.n.-   X .   0 OXkXvXpXe * 3.oXXXXXXXXXXX/ # w pXvXkXOX0   . . . = u.H.[.=X[.Y.h.Z._.-X-X[.K.z.z.A.",
"=X%X_._._._._.R.F.D.R.[.*X*X{.~.b ; # .   0 OXkXvXxX( V #XdX#XdXdXdXdX+XV ( fXvXkXOX0   . O = j s.F.E.[.=X[.H.F.R.[.%X[.H.A.z.Z.",
"-X[.H.z.m.Z.A.F._.I.F.K.[.[.K.m.N.!.L 5 . * ~ +XkXkXaXaXgXhXhXhXhXhXhXgXaXaXlXkX+X~ *   3 v x j.T.R.D.K.[.&X[.R.D.F.].%X[._._.).",
"=X[.H.z.C.C.Z.H.[.`.Z.z.I.I.l.Z.[.[.Q.r ; # u ~ OXaXhXlXlXlXhXhXhXhXlXlXlXhXaX.X~ d * ; n m s.Z._._.A.z._.&X[.R.F.H.].-X-X-X-X=X",
"=X%X]._._._._.[.*X`.Z.g.z.z.g.Z.[.[.m.x.n e # # , ~ #XgXjXlXgXdXdXgXjXlXdX#X~ , o # 8 n x.s.d.A._._.A.Z._.].H.D.Y.[.%X=X-X-X-X=X",
"=X-X-X%X_.[.&X&X[.I.z.g.l.z.Z.K.[.[.F.a.n e e 4 X , / XX+XyX#X#X#X+XyX+XXX^ > + 8 e t n x.S.S.K.[._.A.z._.[.H.H.[.&X[._._.[.%X-X",
"=X=X-X[.H.H.[.[.K.l.g.l.I.).`.].*X`.G.u.: 9 { 6XD 1 * , 0 f 1.1.1.-.N 0 , * 1 D 6X{ e < N.[.`.[.&X_.Z.Z._.&X[.[.=X[.L.Z.z.H.[.;X",
"=X-X-X_.H.D.R.Y.z.g.l.K.`.-X>X>X{._.x.u.v Q 0XuX3XA 3 + . * f / ~ f 7 @ @ 3 A 3XuX0XQ n Q.|.-X>X[.R.F.F.E._.]._._.Y.z.f.f.z.I._.",
"-X=X-X%X[.R.F.h.g.z.P.].{.>X{.{.L.j.m U 6X0X6X3X3X1XH S 6 n ' ( E N ! U I H 1X3X5X6X9X9X' ) ).{.L.D.E.E.F.Z.Z.A.A.z.g.f.f.f.l.z.",
"-X-X-X&X[.R.F.z.g.A.].>X-X-X>X{.x.x r J 0X0X3X3X<X<XT ` _ ' ' ' ! ! ' [ ` T <X<X<X5XuX8XY F Q.~.k.V.Y.R.z.g.l.z.g.f.g.g.C.m.A.A.",
"-X-X-X].H.D.E.Y.V.A._.;X;X;X;X(.m S A G ` 5X7X<XA 6 H 3XuXrX' ! ' ' W F Y H 6 A 3X7X3X3XD S P m s.g.C.z.g.l.Y.Y.z.f.f.z.I.]._._.",
"_._._.I.h.V.Y.Y.z.l.I._.W.).@X X( Q S A G T <XH 1 @ S ` uXuX{ _ ' ! F r D S + 1 G <XH G A S Q W v.s.d.g.V.L.[.[.H.Z.A.K.[.&X[._.",
"Z.Z.z.z.g.g.V.V.g.g.z.V.S.c.!.4.yXeXQ A A A 3 3 # 8 8 F ` 6XuXrX! y y t 1 + # 2 3 3 A A A Q eXyX3.M s.h.Y.[.=X%X[._._.[.&X[.H.z.",
"Z.C.C.m.A.A.Z.m.A.A.A.A.S.a.N 1.sXfX4.U S 5 7 < > 7 t G T 5XpXzX{ K t 9 2 8 9 7 o + 3 S U 4.gXsX1.N c.L.[.-X-X-X-X&X[.[.%X[.H.z.",
"_.W._._._._._.E.E.W.W.W.W.n.< f aXlXgX.Xy q Q.Q.> # L [ 4X8XzXxXpX6X9 # L ) W t 8 # . q .XfXlXaXf < M.[.=X;X-X;X;X[.H.G.[.%X]._.",
"-X;X-X&X].[.&X&X%X%X&X%X%XM.l k 4.aXaX.XN c ~.^.< 5 R qX8XwXzXxXxXrXQ t ! ! L e w 4 @ q .XaXaX4.v l M.]._._._._._.Y.B.m._.=X-X-X",
"-X-X-X[.K.K.%X].H.H.[.%XH.k.s.c q 0 0 k t.s.Z.j.k w R qXiXzXwXqXqXrXeX6Xy @ @ # 8 7 9 q q d 0 k x i.h.A.A.A.A.A.Z.h.g.z._.-X-X-X",
"_.[.&X_.z.h.I.R.m.H.[.[.H.A.V.s.j = = j i.g.i.z n I R 4XiXwXQ.] ) { iXuXF + . X 7 t L e .   O j y.B.f.f.f.f.f.g.z.Z.z.K.].&X]._.",
"m.H.[._.A.g.m.F.Y.[.%X%X[.Y.S.d.i.t.t.i.f.i.j : I 2X2X4X4X] r # O r 4X4XR P 5 8 e n F e . = z y.d.g.g.f.f.f.f.z.Y._.].].&X].K.z.",
"C.F.E.Y.z.g.B.K.[.=X].[.%X[.G.m.g.B.Z.S.D.p.= 3 R 2X2X2XR I : = : r P R 4XR I r r r e 9 ; l j.Z.g.g.l.A.A.z.g.z.Y.[.=X-X[.Y.l.f.",
"W.E.F.z.g.h.P.W.%X].H.F.W.%XW.Y.V.C.Y.{.{.n.< @ Y 2X4XY 6 : z a.N.Q.q 6 R 2X2XI 5 . . < C (.`.Y.V.V.Y._.].Y.l.g.z.K.[.[.L.V.g.f.",
"].Y.z.g.l.H.%X-X-X].F.H.%X%X%XE.D.H.[.;X>X^.< + I 2X2XI @ - a.U.'.^.: + I ` 4XI @   - b (.-X[.R.D.K.[.;X;X_.A.g.h.F.E.Y.z.g.B.m.",
"S.l.g.l.T.%X%X-X-X%X[.[.%X[.H.D.R.].&X;X,X^.; + r U U n + ; n.'.U.a.= + r U U n + - C (.%X[.H.D.R.].&X-X;X_.Z.l.Y.E.D.h.g.z.Y._.",
"g.g.g.A.E.;X&X&X&X&X&X-X%X].H.F.[.-X-X%X%XN.b < 9 r 9 5 : l /.[.G.i.j : 5 q r 7 5 M /.-X;X_.H.H.].;X=X%X].R.F.F.E.E.F.V.g.A._.;X",
"f.f.f.m.[.;X-X-X&X-X-X-X-X%X].].&X-X-X].H.F.N.b.< X X : z j.).].S.d.j.c ; X . < b./.$X;X=X%X].].&X-X-X].H.D.R.E.F.F.E.Y.V.m._.;X",
"g.g.f.C.W.-X&X&X-X&X=X=X=X=X=X=X=X-X=X_.C.Z.{.^.<     = i.G.[.].Z.h.Z.a.:     < ^.:X-X=X=X=X-X-X=X-X=X_.Z.Z._._.Z.Z._._.Z.z._.-X"
};
