/* XPM */
static char *result[] = {
/* columns rows colors chars-per-pixel */
"64 64 222 2 ",
"   c #010100",
".  c #060A04",
"X  c #170B00",
"o  c #180C05",
"O  c #051D00",
"+  c #1B120C",
"@  c #21150E",
"#  c #23190F",
"$  c #251A10",
"%  c #092C03",
"&  c #16280E",
"*  c #192611",
"=  c #1B3111",
"-  c #312A0D",
";  c #342D16",
":  c #352C1C",
">  c #223316",
",  c #38341D",
"<  c #4E2C01",
"1  c #593305",
"2  c #663901",
"3  c #6A3C02",
"4  c #713D03",
"5  c #553E26",
"6  c #105001",
"7  c #22510F",
"8  c #166901",
"9  c #3B4821",
"0  c #3A5E25",
"q  c #1C6A33",
"w  c #02763F",
"e  c #097D3C",
"r  c #167A3E",
"t  c #2F6C35",
"y  c #346A3D",
"u  c #386D3E",
"i  c #22793C",
"p  c #595412",
"a  c #6E4107",
"s  c #774506",
"d  c #645A11",
"f  c #716716",
"g  c #5C5936",
"h  c #5D5A36",
"j  c #714F27",
"k  c #714E31",
"l  c #645A36",
"z  c #735332",
"x  c #755B35",
"c  c #537830",
"v  c #5C7C3B",
"b  c #6B6A2F",
"n  c #627C3B",
"m  c #777C31",
"M  c #7D7D36",
"N  c #797639",
"B  c #007440",
"V  c #177040",
"C  c #1A7441",
"Z  c #237441",
"A  c #3F7543",
"S  c #526D42",
"D  c #557443",
"F  c #6D6D42",
"G  c #6D7042",
"H  c #737344",
"J  c #7C7E46",
"K  c #844D0A",
"L  c #8B591A",
"P  c #905B1C",
"I  c #84701E",
"U  c #8C6B2E",
"Y  c #926837",
"T  c #8D713E",
"R  c #817E3E",
"E  c #936C43",
"W  c #827D45",
"Q  c #8B7843",
"!  c #987245",
"~  c #199200",
"^  c #249A05",
"/  c #318E10",
"(  c #3AA80D",
")  c #27B302",
"_  c #24B900",
"`  c #2ABB05",
"'  c #34B60F",
"]  c #35BE0F",
"[  c #3EAA11",
"{  c #39B310",
"}  c #36BE10",
"|  c #39BE12",
" . c #0A803A",
".. c #138737",
"X. c #158836",
"o. c #1C8F33",
"O. c #24972F",
"+. c #2C972F",
"@. c #269A2E",
"#. c #299B2D",
"$. c #3C9332",
"%. c #2EA527",
"&. c #2EA22A",
"*. c #31A427",
"=. c #32A529",
"-. c #36A82F",
";. c #3BA531",
":. c #36A931",
">. c #38AA32",
",. c #3CAD39",
"<. c #469F0F",
"1. c #4E9A1B",
"2. c #529D1D",
"3. c #45AB14",
"4. c #4AB21D",
"5. c #47992E",
"6. c #439B32",
"7. c #4C9930",
"8. c #549D31",
"9. c #658C28",
"0. c #6E8838",
"q. c #728637",
"w. c #7C8D3A",
"e. c #779337",
"r. c #7C953B",
"t. c #47A029",
"y. c #52AC21",
"u. c #4CB922",
"i. c #52B422",
"p. c #45AD38",
"a. c #58A834",
"s. c #41B13E",
"d. c #68AE36",
"f. c #74BA3C",
"g. c #2DC206",
"h. c #35C10F",
"j. c #38C211",
"k. c #3DC115",
"l. c #40C117",
"z. c #40C118",
"x. c #48C41F",
"c. c #4CC522",
"v. c #4EC925",
"b. c #51C626",
"n. c #51C926",
"m. c #53C728",
"M. c #53C829",
"N. c #5ECB32",
"B. c #62CC35",
"V. c #66CD39",
"C. c #69CD3C",
"Z. c #67D23A",
"A. c #288443",
"S. c #3BA545",
"D. c #6C8D45",
"F. c #768847",
"G. c #679D48",
"H. c #41AA4C",
"J. c #5CA74C",
"K. c #55AA4A",
"L. c #5AAB4D",
"P. c #45B546",
"I. c #47B648",
"U. c #49B64A",
"Y. c #45B949",
"T. c #4BBA4F",
"R. c #50B74D",
"E. c #52BC4A",
"W. c #4CBB50",
"Q. c #55BE51",
"!. c #5CBC51",
"~. c #6AA645",
"^. c #73AB47",
"/. c #77B746",
"(. c #7ABC44",
"). c #68B350",
"_. c #7FBE53",
"`. c #57C151",
"'. c #5BC251",
"]. c #79C946",
"[. c #73D144",
"{. c #77D448",
"}. c #7AD44A",
"|. c #7ADB49",
" X c #65C653",
".X c #65C953",
"XX c #6DCB53",
"oX c #79C754",
"OX c #7DD356",
"+X c #7FD658",
"@X c #81973D",
"#X c #868147",
"$X c #8C8344",
"%X c #858D49",
"&X c #908447",
"*X c #928548",
"=X c #958A49",
"-X c #879748",
";X c #8F934A",
":X c #8D9A4B",
">X c #90994C",
",X c #89AE4D",
"<X c #86B647",
"1X c #8CAE51",
"2X c #91AB50",
"3X c #8BB451",
"4X c #8DBE53",
"5X c #90BE55",
"6X c #86C34F",
"7X c #88C753",
"8X c #8DC555",
"9X c #90C255",
"0X c #85D655",
"qX c #8AD557",
"wX c #85D955",
"eX c #89D957",
"rX c #86D758",
"tX c #8BD559",
"yX c #86D958",
"uX c #8CD95A",
"iX c #91DD5D",
"pX c #92E35D",
/* pixels */
"_ z.[.[.k.k.[.uXuXuXuX[.k._ _ _ _ l.[.uXuXuXuXuXqXqXuX[.k.k.{.[.z.z.[.[.4.k.[.uXuXuXuX[.| _ ` ` _ k.[.uXuXiXuXuXtXtXuX[.k.k.{.iX",
"_ l.[.[.k.k.[.uXuXuXuX[.m.} ` ` _ j.[.eX}.[.[.}.wXuXuX[.k.| B.N.| k.[.[.k.k.[.uXuXqXuX{.m.| ` _ _ 4.[.wX}.[.[.}.wXuXtX[.| } N.[.",
"_ z.[.[.4.k.[.uXuXuXuX0X}.B.| _ _ 4.[.}.m.k.l.m.}.uXuX[.k.` | | ` l.[.[.k.k.[.uXuXuXqXqX}.N.| _ _ k.[.}.M.k.k.m.}.uXiX[.k.` } | ",
"k.m.}.[.| ] N.}.wXuXuXuXuX[.z.` | m.}.[.l._ _ k.[.uXuX{.m.z.k.| k.m.}.[.k.h.N.}.rXuXqXuXuX[.z.` j.M.}.[.| _ _ z.[.tXtX}.M.z.k.z.",
"[.}.wX[.| ` } m.}.iXuXuXuX[.| } B.}.rX[.| _ _ l.[.uXuXwX}.[.[.[.[.}.wX[.k.` ] n.}.uXuXuXuX[.k.] B.}.eX[.k._ _ | [.uXuX0XOX[.[.[.",
"uXuXuX}.m.z.| c.V.].wXuXuX}.b.c.V.}.uX}.m.] ` k.[.uXqX0X}.[.[.}.qXuXuX}.M.k.| c.B.{.wXuXuX{.v.c.V.}.wX}.b.] ` k.[.uXuX0X}.[.[.[.",
"uXuXuXwX}.[.[.V.x.c.}.uXuXwX}.V.x.m.}.rX}.B.} l.[.iXuX}.m.| | m.].uXuXqX}.{.[.V.x.c.}.uXuXwX}.Z.c.b.}.eX}.N.} | [.iXuX}.n.k.| 4.",
"uX0X].[.[.[.[.C.c.x.V.}.rXqX}.V.x.x.V.}.rX}.M.x.V.].rX{.c.| k.m.}.wX}.[.[.[.[.V.c.c.V.[.6X4X5X(.y.4./.9XuX}.m.c.B.}.wX}.v.j.k.k.",
"uX{.b.| j.l.4.c.V.V.c.m.}.}.m.c.V.V.x.b.}.eX}.V.x.b.}.rX{.[.[.}.wX[.b.| k.k.k.c.V.Z.c.i.e.&X*X#XM q.#X:X8XyX{.B.x.c.{.wX}.[.[.[.",
"uX{.b.k.l.j.j.m.}.[.z.j.N.B.} k.{.[.k.k.C.qX}.V.x.c.}.uXuXuXuXuXuX}.b.k.k.k.k.m.(.(.y.1.w.$X*X&X&X*X$X;X1X5X9X(.u.b.{.uXuXuXuXqX",
"uX0X{.[.[.[.C.}.uX[.z.` | } ` k.{.[.k.j.[.}.b.x.B.}.rXuXuXtXuXqXqX0X}.[.[.[.[.].-X$XM w.,X4X4X4X5X4X8X1X;X&X*X-X(.}.wXuXuXuXuXqX",
"qXuXuXwX}.}.qX0X}.N.| ) ( [ [ y./.(.y.i.}.}.n.b.}.rX].[.[.}.wXuXuXqXuXwX].[.8X2X;X&X&X:X8XrX+XOXwXuXuX8X:X&X&X:X8XwX}.[.[.}.wXuX",
"rXuXuX].c.b.}.0XM.| ` ( 9.m m q.$X#XM r.6XwX{.}.rX}.m.4.| m.}.uXuXuXuX}.b.y.e.;X3X4X8X8XqXOX X X+XuXuXrX8X4X4X8XqX{.M.k.| m.}.iX",
"uXuXuX{.b.c.C.B.4.( ( y.w.*X=X*X&X$X&X;X1X4X4X8X}.B.h._ _ } B.}.0XuXuX{.c.y.M &X4XrXOXOXrXOX X XOXqX0XOXOX+X0XqX8X(.| _ _ | B.[.",
"eXqXuX0X}.C.x.4.9.m m w.,X4X5X5X8X4X4X3X;X$X*Xr.i.j.` _ _ ` } c.{.uXuX0X{.(.$X$X4XOX.X.XOXwXOX0XrX0X XQ.`..X0X8X>Xe.[ _ _ g.} | ",
"uXuXuXwX}.B.4.2.@X*X*X>X8XwX+XOXyXuXuX8X:X*X*Xe.{ _ _ ` | k.k.m.{.uXuXtX8X3X;X:X8X+X.X XOXuXuXrX0XXXQ.T.W.`.+X4X*Xm [ ` j.k.k.4.",
"uXuXuX}.M.4.9.@X,X4X4X8XtXOX X XOXuXuXtX8X4X4X(.| _ _ | B.[.[.}.rXiXuX9X:X;X3X7XqXqXOX0XrXqXuX0X XQ.W.W.W.'.OX4X*Xm 3.h.N.C.}.[.",
"C.[.[.N.h.( m ! 4XwX+X+XqXOX X X+XrXOXOXOXOXqX[.i.[ | m.}.tX{.[.[.[.Z./.$X&X4XuXqXuXrXuXqXrX0XXXR.P.P.P.P.E.XX_.%Xq.5.i.[.eX0X[.",
"l.k.l.} ` 3.m *X4X+X X XOXwXOX0XrXOX X'.'..X+X6Xr.e.(.}.wX}.M.k.k.k.k.y.M &X4XuXuXqXuXuXuXOX XE.,.:.-.-.:.p.E.Q.L.G.0.r.6X|.c.l.",
"l.l.k.| [ 2.r.>X8XOX X XOXuXuXqX0XXXQ.W.W.'.OX4X&X$X(.|.wX].m.k.k.k.k.y.q.&X4XeXuXwXOXOXrXOXQ.P.:.&.-.-.=.:.P.W.`.K.J *X5X{.c.j.",
"[.[.[.f.e.w.,X8XqXwXOXOXrXqXuX0X XQ.W.T.W.'.OX8X=XM y.v.}.rX}.[.C.[.[.(.#X$X4XuXuXOX X XOXOX'.P.-.-.H.,.-.-.P.T.T.J.#X&X4XwX[.C.",
"uXuXyX4X$X*X8XuXuXuXuXuXqXrX0XXXR.P.P.P.P.T.XX_.F.0.1.i.].uXuXuXiXtX9X1X:X:X_.+XrXOX X XOXOX'.I.,.,.I.I.,.,.I.W.T.J.R &X4XuXiXiX",
"uXuXuX4X&X&X4XyXqXuXuXuXuXOX XE.,.>.-.-.>.,.E.!.L.~.q.r.6XeXuXuXiX9X>X;X1X<X!. XOXrXOXOXqXOX'.U.I.I.T.T.I.I.T.T.T.J.#X&X4XuXuXiX",
"[.{.wX8X&X$X4XuXuXwXOXOXrXOXQ.P.-.=.-.-.=.:.P.W.T.J.W *X9XwX}.[.[.f.-X>X8X+X X X0XuXuXuXuXOX!.T.T.W.T.W.T.W.T.T.T.L.F.%X,X6X}.[.",
"k.n.{.4X*X&X4XuXuXOX X XOXOX!.P.-.-.S.s.-.-.P.W.W.J.J *X5X|.m.| j.b.(.8XqX0XOXOXqXuXuXqXuXOXQ.W.T.T.W.T.W.T.W.T.T.T.L.~.%Xr.i.k.",
"k.c.].1X;X-X_.OXrXOX X XOXOX'.I.,.,.Y.I.,.,.P.W.W.J.W $X(.N.j.) ( i.}.uXuXuXuXrXOXOXOXOXOXXX!.T.T.T.I.P.T.T.T.T.T.T.W.J.W N / ~ ",
"[.(.-X;X1X6X!. XOXrXOXOXqXOX'.U.I.Y.T.T.I.I.T.W.`.J.W #Xy.h.g.( 9.@X4XeXuXqXuX0X X'.Q.!.Q.Q.Q.T.W.I.,.,.I.T.T.T.T.T.`.L.#Xz > % ",
"[.(.-X;X8X0X X XOXuXuXuXuXOX'.T.W.R.T.T.W.W.T.W.Y.K.F.0.1.{ j.y.q.*X4X0X0XOXOXXXE.I.U.T.W.W.T.W.T.I.,.,.I.W.Q.W.T.W.T.K.D.g : + ",
"k.c.(.8XqXrXOXOXrXuXuXuXuXOX'.T.T.W.T.T.T.T.T.R.T.T.L.~.0.e.].6X$X*X4XOX X'.'.E.,.,.I.T.W.U.T.T.T.T.I.I.T.W.W.T.W.W.W.S.A.y h z ",
"[ i.[.uXuXuXqXwX0XOXOXOXOXXX'.T.T.T.I.P.T.R.W.T.T.T.W.J.J Q D.G.Q &X4XOX`.Y.T.P.-.-.P.W.T.Q.T.W.R.W.T.T.P.P.P.P.I.U.Y.S.Z y h z ",
"m r.6XuXuXuXeX0X XQ.'.Q.!.Q.R.T.T.I.,.,.I.W.T.T.T.T.`.L.#Xz , , x =X5XOX'.T.T.P.;.-.P.W.W.W.T.T.W.W.Q.I.,.:.>.>.>.>.-.6.0.g , + ",
"E &X4XyX+XOXOXXXE.P.U.W.T.T.T.W.W.I.,.,.I.W.W.W.T.T.T.K.D.g : ; b r.oXXX'.U.W.I.,.,.I.W.W.W.T.T.I.P.P.s.-.&.@.@.&.&.%.5.J z #   ",
"E &X4X+X X'.!.T.,.,.P.W.T.W.W.T.W.U.I.I.T.T.W.W.Q.W.W.H.A.Z g b 1.[ `.`.T.T.T.T.Y.Y.T.W.W.W.T.I.,.;.>.-.=.@.....@.=.%.7.R k #   ",
"E $X4XOX'.T.T.P.-.;.P.W.W.T.T.T.T.W.Q.T.I.P.P.P.P.Y.Y.S.A.t g f ( ' p.L.R.T.T.T.W.W.Q.U.I.P.P.P.-.#.#.#.=.@.e e @.=.%.6.v h : # ",
"Y &X5XOX'.T.W.P.-.-.P.T.W.T.W.T.W.W.W.Y.p.:.>.>.:.:.>.6.G g : > ~ { 0.F.L.T.T.W.T.E.W.I.,.-.-.-.=.@...X.#.@.e e O.=.=.+.X.y h x ",
"&X:XoXXX`.T.W.I.,.,.I.W.W.Q.R.T.I.P.Y.,.-.&.@.@.&.&.&.7.q.k @ % / i.r.%X~.L.R.T.I.I.I.S.-.=.=.=.=.@.e e @.#.X.X.@.=.=.+.i y h z ",
"4X_. XQ.W.W.W.U.I.I.U.W.W.W.W.I.,.-.>.-.=.@.X.X.@.&.%.7.R k + & 8.}.7X1X%XD.L.Y.,.>.:.-.=.=.=.=.=.@.e e @.&.#.#.&.=.&.6.n h : # ",
"yXOX).L.W.Y.W.T.W.W.W.U.I.P.I.s.-.#.#.#.=.O.e e @.=.%.6.v g : 9 ^.uX7X1X%XF.L.I.-.*.=.=.=.&.@.@.&.@...X.@.=.=.=.=.=.%.7.W z @   ",
"yX8X%XF.L.W.W.W.W.W.W.U.,.:.>.:.=.@.X.X.#.O. . .@.=.=.#.i y g N 4X8X:X-XG.L.W.I.>.=.*.=.=.@.....@.*.#.@.&.=.=.=.=.=.=.7.M z @   ",
"uX7Xr.0.G.J.R.U.I.P.P.P.;.*.*.=.=.@.e e O.#.X.X.@.=.=.+.r A g N 3X8X*XJ J.W.W.P.;.&.@.@.&.@.....@.=.*.=.=.=.=.#.@.@.@.$.D g : # ",
"uX[.i.2.q.F.L.Y.,.:.:.-.=.=.=.=.=.@.e e @.=.@.@.&.%.=.;.n g : 9 ^.8X&XJ J.T.T.P.>.@.X.X.@.=.@.@.=.=.=.=.=.=.-.#.X. . .r r u h z ",
"uX].u.2.q.F.L.Y.:.*.=.=.=.#.@.@.=.@.X...@.=.=.=.=.=.%.7.R k + = ~.7X&XW L.T.Y.s.-.#...X.@.=.=.=.=.=.=.=.=.=.#.O. .B B B B Z H ! ",
"uX6Xr.0.G.K.T.P.:.=.*.=.=.@.....@.=.@.@.#.=.=.=.=.%.&.7.R k + * ~.9X=XW J.P.,.-.=.&.@.@.=.=.=.=.=.=.=.=.=.#.o.B B B B B B Z G ! ",
"uX8X*XJ K.`.T.P.>.&.@.@.=.@.....@.*.=.=.*.=.=.=.@.O.O.$.v g : 9 ^.8X:X%XG.K.>.&.&.=.=.=.=.=.=.=.=.#.#.O.O.o. .B B B w B C u h z ",
"uX4X*XW J.T.W.Y.>.@.....#.=.+.@.=.=.=.=.=.=.=.+...e e r r A g N <XrXqX,X%X0.5.&.=.=.=.=.=.=.=.=.=.#.X. . .B B B B B B V D g : @ ",
"uX8X$XW J.T.Y.,.-.@.....@.=.=.=.=.=.=.=.=.=.#.o.e B B B B Z F =X8XyXuX8X>XF.5.*.&.=.=.&.#.@.@.@.@.o.e B B B B B B B V A l p +   ",
"uX4X=XJ J.Y.,.>.=.&.#.@.&.=.=.=.=.=.=.=.=.@.X.e w B B B B V F =X8XuXuXrX9X/.p.#.%.=.=.#.X.e  .e  .e B B B B B B B C D l : +     ",
"uX7X>X%XG.K.>.%.*.=.*.=.=.=.=.=.=.#.@.@.@.o.e B B B B V V y g N 3XuXuXwX}.C.a.6.+.O.@.o.e B B B B B B B B B B B B Z H z $       ",
"uXrX8X1X%X0.6.=.=.=.=.=.=.=.=.=.-.@.X.e e e w w B B w C D g : 9 ^.pXiX|.n.4.q.n i  . . .B B B B B B B B B B B B B Z H z $       ",
"[.[.[.f.e.0.$.%.%.=.=.=.@.@.@.@.#.O.e B B B B B B B C u l 5 + & 8.{.[.N.h.( 9.n A V B B B B B B B B B B B B Z Z Z u g p +       ",
"k.k.k.k.{ [ *.&.=.*.=.@.X.e e e e B B B B B B B B C D l : + . % / j.l.j.` ) ( 1.n c V B B B B B B B B B B V D H H l : + .       ",
"k.k.k.k.k.4.t.$.@.@.@.o.e B B B B B B B B B w B B Z H z #     & / l.j.l.l.l.k.i.F.J S Z Z Z Z Z i q q q V A g z x 5 +     . * > ",
"[.[.[.[.[.(.w.v i e e w w B B B B B B B B B B B B Z H z $     = a.[.[.[.[.[.[.}.7X,XJ F n F F b b d p p l F , $ $ + .     * c ).",
"uXuXuXwX}.].;XJ A q w B B w w B B B B B B B C Z Z u g p @     > ~.iXuXwX}.}.uXrX|.].:XQ ! E E Y P K a 4 j 5 +         . * 0 /.iX",
"uXuXuX}.m.b.(.1XJ S V w B B B B B B B B B C D H H l : +       > ~.pXpX{.m.m.}.}.n.c.].2X&XE E Y P K 4 1 - +           * c /.tXiX",
"[.}.qX[.| } N.].:XJ A Z Z Z Z i q q q q i A g z x 5 +     . O 7 a.}.eX[.| ] B.V.x.c.}.4X$XY Y I L s s < X     . * > > 0 ).yX}.[.",
"k.m.}.[.l.` j.u.].1XJ F F G G b f d p g b h , $ $ + .     % 8 ^ ' m.}.[.l.` ] x.V.{.eX4XU P L L s a 3 < X     * c ~.~./.rX}.m.k.",
"k.x.C.B.} ` ] b.}.6Xw.R T E ! Y P K a a j 5 +           O 6 ^ g.j.c.C.B.| ` ] b.|.wX}.d.I K K s a 2 2 < X   % 7 a.|.uXuX}.N.} _ ",
"[.V.b.} ` } B.}.rX{.i.2.N E ! Y P K a 1 - +           O 8 ^ ) j.V.C.b.] ` } B.{.qX}.n.<.d a s a 3 3 2 < X O 8 ^ | M.|.}.M.| ` _ ",
"{.B.} ` } m.}.uXtX{.c.4.m Y Y U L s a < X     . * = % 6 ^ g.k.c.C.B.j.` } m.}.uXuX}.n.3.f d d p d f f p , 7 ^ g.k.v.C.B.| ` | | ",
"z.| ` | B.}.rXuXeXwX}.f.I P P L s a a < o     * c a./ ~ ) k.N.V.c.j.` j.B.}.rXuXrX0X[.].<Xd.<.<.d.<X<Xf.^.a.' j.N.C.c.} ` k.N.[.",
"` _ ` l.[.uXuXuXeXuXuX<XI K K s a 3 3 < X . * 0 d.[.n.j.g.z.{.{.z._ _ k.[.uXuXuXqXuXuXuXuX}.n.n.0XeXtXqX}.Z.c.c.V.C.c.} ` z.[.iX",
"_ _ _ 4.[.uXuXuXeXuXuX<Xf 3 3 a 3 3 3 < X * 7.a.c.v.Z.Z.j.k.{.{.z._ _ k.[.uXuXuXeXuXuXuXuXwX{.{.wXiXuX}.M.c.V.C.c.c.C.N.| z.[.iX",
"_ g._ k.[.uXuXrXeXuXuX,Xf 2 2 3 2 3 3 < X > ~.|.k.k.[.[.4.| [.[.z._ _ 4.[.uXuXqXeXqXuXeXuXwXuXuXuXtXiXC.k.| {.}.| | {.{.z.| [.tX"
};
